<svg xmlns="http://www.w3.org/2000/svg" width="512" height="68" viewBox="0 0 540 68" fill="none">
<g clip-path="url(#clip0_59_1460)">
<path d="M7.14189 20.9275C8.0117 20.2217 9.04459 19.3599 10.2474 18.3351C10.6823 17.9551 11.0356 17.6361 11.3074 17.3647C11.5793 17.0932 11.8103 16.7675 12.0006 16.3942C12.1908 16.0142 12.3811 15.546 12.5714 14.9759C12.7616 14.4059 13.0199 13.639 13.346 12.6686H13.2645C12.884 13.5304 12.4083 14.209 11.8375 14.6909C11.2667 15.1795 10.6415 15.6477 9.96196 16.1092C9.28243 16.5707 8.60289 17.1068 7.92336 17.7312C7.24382 18.3555 6.63224 19.2038 6.08861 20.2828V20.2014C6.57788 18.7966 6.94483 17.609 7.18267 16.6386C7.4273 15.6681 7.64475 14.813 7.83502 14.0869C8.02529 13.3608 8.26992 12.7228 8.56212 12.1799C8.86112 11.637 9.33 11.1281 9.98235 10.6394V10.558C8.52135 10.938 7.33216 11.7999 6.408 13.1504C5.48383 14.5009 5.02174 16.0142 5.02174 17.6904V23.3638C5.56537 22.4477 6.27209 21.6333 7.14189 20.9343V20.9275ZM10.9813 13.9987C11.7423 13.2182 12.4287 12.4175 13.0538 11.6099C13.6722 10.8023 14.2702 10.0287 14.841 9.30253C15.4118 8.5764 16.0438 7.91133 16.7505 7.32092L16.669 7.23949C16.1797 7.67381 15.5749 7.99956 14.841 8.20993C14.1139 8.4271 13.3393 8.77999 12.5306 9.26181C11.722 9.75043 10.9337 10.5173 10.1794 11.5692C9.42513 12.621 8.77278 14.1751 8.23595 16.2246C9.31641 15.5256 10.2338 14.7791 10.9949 13.9987H10.9813ZM1.8755 35.1924C2.41233 36.0067 3.01712 36.8007 3.68986 37.5812C4.3626 38.3616 5.02174 39.3252 5.6673 40.4586H5.72846C5.66051 40.0242 5.62653 39.5967 5.62653 39.1624V38.0291C5.62653 37.5947 5.77603 36.8822 6.08182 35.8846C6.38761 34.887 6.70699 33.7808 7.04676 32.5593C7.37973 31.3445 7.67193 30.1162 7.92336 28.8743C8.17479 27.6324 8.24274 26.5262 8.13402 25.549H8.05247C7.88938 26.2548 7.60398 26.9402 7.19626 27.6188C6.78854 28.2907 6.36722 28.9965 5.93232 29.7226C5.49742 30.4487 5.11688 31.2359 4.7907 32.0707C4.46453 32.9054 4.30144 33.8148 4.30144 34.7852C4.30144 35.1109 4.3626 35.5521 4.4985 36.1221C4.62761 36.6922 4.69557 37.0247 4.69557 37.1333H4.61402C4.40337 35.9457 4.09758 34.8123 3.70345 33.7265C3.30252 32.6475 2.90839 31.6499 2.51426 30.727C2.12013 29.8108 1.78716 28.9693 1.52214 28.216C1.25712 27.456 1.12801 26.8384 1.12801 26.3498C1.12801 25.8069 1.1416 25.3793 1.17558 25.0536C1.20955 24.7279 1.22994 24.3275 1.22994 23.8388H1.1416C0.96492 24.2732 0.747468 24.9722 0.489245 25.9426C0.231022 26.9131 0.10191 27.7817 0.10191 28.535C0.10191 30.1569 0.264999 31.4667 0.58438 32.4643C0.910557 33.4619 1.33866 34.3712 1.8755 35.1788V35.1924ZM16.6486 57.1529C16.9204 57.1801 17.2194 57.1937 17.5388 57.1937C17.9737 57.1937 18.3746 57.1665 18.7551 57.1122C19.1357 57.0579 19.6182 56.9765 20.2161 56.8679C20.8073 56.7593 21.582 56.5829 22.5266 56.3386C23.4711 56.0943 24.7283 55.7889 26.298 55.4088C25.2719 55.1442 24.3817 54.8863 23.6206 54.642C22.8663 54.4045 22.1053 53.9294 21.351 53.2304C20.4336 52.4229 19.5162 51.5881 18.5921 50.7263C17.8785 50.0612 17.1243 49.4301 16.3972 48.7718C16.1933 48.5886 15.1264 47.6453 14.8206 47.3399L14.7391 47.4213C14.8614 47.6181 15.8603 49.6201 15.8603 49.6201C15.8603 49.6201 16.0166 49.8373 16.0846 49.9526C16.3564 50.4345 16.6214 50.9163 16.8796 51.3981C16.9816 51.5881 17.0835 51.7782 17.1854 51.975C17.5048 52.5925 17.9533 53.1151 18.5309 53.5494C19.2172 54.1941 20.3521 54.7574 21.9422 55.246V55.3274C21.2558 55.2188 20.6714 55.1238 20.1958 55.0492C19.7201 54.9677 19.2852 54.9067 18.8843 54.8456C18.4901 54.7913 18.0892 54.7506 17.6951 54.7234C17.2126 54.6895 16.7165 54.6624 16.2341 54.5945C15.8535 54.5334 15.4798 54.4655 15.0925 54.4248C14.7187 54.3841 14.345 54.3366 13.9644 54.2959C13.7674 54.2755 13.5771 54.2484 13.38 54.228C12.6461 54.1466 11.9666 54.0244 11.3414 53.8616C10.7162 53.6987 10.1047 53.4476 9.50668 53.0947C8.90868 52.7418 8.25633 52.2464 7.54961 51.5949L7.46807 51.6764C7.73988 52.165 8.10683 52.674 8.56892 53.2169C9.031 53.753 9.60181 54.3027 10.2813 54.8456C10.9609 55.3953 11.7627 55.8567 12.6869 56.2436C13.6111 56.6304 14.6711 56.9018 15.8671 57.0715C15.8671 57.0715 16.3768 57.1326 16.635 57.1529H16.6486ZM3.99565 31.7856H4.09758C4.15194 31.297 4.22669 30.8695 4.33541 30.4895C4.44414 30.1094 4.6412 29.6547 4.9334 29.1118C5.22561 28.5689 5.64012 27.9242 6.17695 27.1641C6.71379 26.4041 7.43409 25.3793 8.33788 24.0832C8.87471 23.2756 9.30282 22.3255 9.6222 21.2465C9.94158 20.1674 10.159 19.3802 10.261 18.8984H10.1794C10.0707 19.1699 9.95517 19.4006 9.81926 19.5838C9.68336 19.7738 9.51347 19.991 9.29602 20.2285C9.07857 20.4728 8.79996 20.7579 8.4534 21.0836C8.10683 21.4093 7.63795 21.8369 7.05355 22.3798C5.98668 23.3502 5.28676 24.246 4.96738 25.0536C4.648 25.8612 4.38298 26.757 4.16553 27.7274H4.08399C4.11796 27.2931 4.14514 26.8791 4.15873 26.4719C4.17233 26.0648 4.18592 25.5422 4.18592 24.8907C4.18592 24.0832 4.13155 23.1331 4.02962 22.054C3.92769 20.975 3.88013 19.5702 3.88013 17.8397C3.88013 17.2968 3.98885 16.7879 4.19951 16.2992C4.41016 15.8106 4.60043 15.3559 4.75673 14.9216H4.67518C3.52677 16.3807 2.7521 17.7447 2.33758 19.0138C1.92986 20.2828 1.726 21.5383 1.726 22.7802C1.726 24.185 2.00461 25.6033 2.56183 27.0352C3.11905 28.4671 3.58793 30.0483 3.98206 31.7721L3.99565 31.7856ZM12.4491 52.769L15.8399 53.5087L17.6067 53.9159C16.9816 53.3865 15.8807 51.6357 15.8807 51.6357C15.5002 51.0452 15.1468 50.2987 14.8206 49.4097C14.4945 48.5207 14.0324 47.3467 13.4344 45.8876C13.2713 45.399 13.0946 44.9715 12.9044 44.5914C12.7141 44.2114 12.4966 43.8246 12.252 43.4174C12.0074 43.0102 11.7084 42.5555 11.355 42.0398C11.0017 41.524 10.5532 40.8929 10.0095 40.1328L9.92799 40.2143C10.0911 40.7504 10.3153 41.7276 10.6143 43.1324C10.9133 44.5371 11.1919 45.8605 11.4637 47.1024C11.6268 48.0185 11.987 48.8736 12.5578 49.654C13.1218 50.4345 13.8693 51.2353 14.7867 52.0428L14.7051 52.1243C14.3246 52.0157 13.6722 51.5814 12.7481 50.8281C11.8239 50.068 10.8454 49.4505 9.81247 48.9618C7.74668 47.9371 6.12939 47.0277 4.96059 46.2473C3.79179 45.4669 2.90839 44.3946 2.3104 43.0509L2.22885 43.1324C2.55503 44.4829 3.05789 45.6976 3.73742 46.7766C4.41696 47.8557 5.21881 48.799 6.14977 49.6133C7.07394 50.4209 8.08645 51.0995 9.1737 51.6357C10.261 52.1786 11.355 52.5518 12.4423 52.769H12.4491ZM4.85866 44.4218L10.8522 48.3918C10.5871 47.8489 10.3629 47.3399 10.1794 46.8513C9.99594 46.3627 9.84644 45.8266 9.74451 45.2294C9.63579 44.6322 9.54745 43.9739 9.4659 43.241C9.38436 42.5148 9.29602 41.6326 9.18729 40.6079C8.97664 38.8298 8.79316 37.4522 8.63008 36.475C8.47378 35.5045 8.18158 34.4459 7.76027 33.3126H7.67873C7.67873 34.2355 7.63795 35.0159 7.55641 35.6674C7.47487 36.3189 7.36614 36.9093 7.23023 37.4522C7.09433 37.9883 6.9856 38.4905 6.90406 38.952C6.82251 39.4135 6.78174 39.936 6.78174 40.5332C6.78174 41.1304 6.95842 41.8973 7.30498 42.8406C7.65155 43.7839 7.98452 44.5575 8.2971 45.1479L8.21556 45.2294C7.29819 43.7703 6.39441 42.5691 5.50421 41.6258C4.61402 40.6825 3.80538 39.8139 3.07148 39.0334C2.33758 38.253 1.7192 37.4794 1.20955 36.7261C0.699901 35.966 0.360133 35.0227 0.197045 33.8894C0.129092 34.1609 0.0747287 34.4187 0.040752 34.663C0.00677521 34.9073 -0.0136108 35.1652 -0.0136108 35.4299C-0.0136108 36.3528 0.149478 37.2826 0.468859 38.2259C0.795036 39.1692 1.19596 40.0514 1.68523 40.859C2.17449 41.6665 2.69773 42.3859 3.26175 43.0034C3.83256 43.6278 4.3558 44.096 4.84507 44.4218H4.85866ZM54.1657 9.3161C54.7365 10.0422 55.3277 10.8159 55.9529 11.6235C56.5781 12.431 57.2644 13.2318 58.0255 14.0122C58.7798 14.7927 59.7039 15.5392 60.7844 16.2382C60.2408 14.1887 59.5952 12.6346 58.8409 11.5827C58.0866 10.5309 57.2984 9.75722 56.4897 9.27539C55.6811 8.78677 54.9064 8.44067 54.1793 8.22351C53.4522 8.00634 52.8406 7.6806 52.3514 7.25306L52.2698 7.3345C52.9765 7.93169 53.6085 8.58997 54.1793 9.32289L54.1657 9.3161ZM59.4865 53.1015C58.8885 53.4544 58.2769 53.7055 57.6517 53.8684C57.0266 54.0312 56.347 54.1534 55.6131 54.2348C55.4161 54.2552 55.2258 54.2755 55.0287 54.2959C54.655 54.3366 54.2744 54.3841 53.9007 54.4248C53.5134 54.4723 53.1396 54.5402 52.7591 54.5945C52.2766 54.6691 51.7806 54.6963 51.2981 54.7234C50.9039 54.7506 50.503 54.7913 50.1089 54.8456C49.7148 54.8999 49.2799 54.9677 48.8042 55.0492C48.3285 55.1306 47.7509 55.2256 47.0578 55.3274V55.246C48.6411 54.7574 49.7827 54.1941 50.469 53.5494C51.0534 53.1219 51.5019 52.5925 51.8145 51.975C51.9165 51.785 52.0184 51.5881 52.1135 51.3981C52.3717 50.9163 52.6436 50.4345 52.9154 49.9526C52.9833 49.8373 53.1396 49.6201 53.1396 49.6201C53.1396 49.6201 54.1385 47.6181 54.2609 47.4213L54.1793 47.3399C53.8735 47.6453 52.8067 48.5886 52.6028 48.7718C51.8757 49.4301 51.1214 50.0544 50.4079 50.7263C49.4905 51.5881 48.5731 52.4229 47.649 53.2236C46.8947 53.9226 46.1336 54.3909 45.3793 54.6352C44.625 54.8795 43.7349 55.1306 42.702 55.4021C44.2717 55.7821 45.5288 56.0943 46.4734 56.3318C47.4179 56.5761 48.1858 56.7525 48.7838 56.8611C49.3818 56.9697 49.8643 57.0511 50.2448 57.1054C50.6253 57.1597 51.0263 57.1869 51.4612 57.1869C51.7873 57.1869 52.0863 57.1733 52.3514 57.1461C52.6096 57.1258 53.1192 57.0647 53.1192 57.0647C54.3152 56.9018 55.3753 56.6236 56.2995 56.2436C57.2236 55.8635 58.0255 55.3953 58.705 54.8456C59.3845 54.2959 59.9554 53.753 60.4174 53.2169C60.8795 52.674 61.2465 52.165 61.5183 51.6764L61.4367 51.5949C60.73 52.2464 60.0777 52.7418 59.4797 53.0947L59.4865 53.1015ZM64.0326 46.2541C62.8638 47.0345 61.2465 47.9439 59.1807 48.9686C58.1478 49.4572 57.1693 50.0748 56.2451 50.8349C55.3209 51.5949 54.6686 52.0225 54.288 52.1311L54.2065 52.0496C55.1239 51.242 55.8646 50.4413 56.4354 49.6608C56.9994 48.8804 57.3663 48.0253 57.5294 47.1092C57.8012 45.8673 58.0798 44.5439 58.3788 43.1392C58.6778 41.7344 58.9089 40.764 59.0652 40.221L58.9836 40.1396C58.44 40.8997 57.9915 41.5308 57.6381 42.0466C57.2848 42.5623 56.9858 43.017 56.7412 43.4242C56.4965 43.8314 56.2791 44.225 56.0888 44.5982C55.8985 44.9783 55.7219 45.4058 55.5588 45.8944C54.9608 47.3535 54.4987 48.5275 54.1725 49.4165C53.8463 50.3055 53.493 51.052 53.1124 51.6424C53.1124 51.6424 52.0116 53.3933 51.3864 53.9226L53.1532 53.5155L56.5441 52.7758C57.6313 52.5586 58.7254 52.1786 59.8127 51.6424C60.8999 51.0995 61.9124 50.4277 62.8366 49.6201C63.7608 48.8058 64.5626 47.8624 65.2489 46.7834C65.9285 45.7044 66.4313 44.4896 66.7575 43.1392L66.676 43.0577C66.078 44.4082 65.1946 45.4737 64.0258 46.2609L64.0326 46.2541ZM66.4925 30.7405C66.0984 31.6567 65.7042 32.6543 65.3033 33.7401C64.9092 34.8191 64.6034 35.9524 64.3927 37.1468H64.3112C64.3112 37.0383 64.3791 36.6989 64.5082 36.1357C64.6374 35.5724 64.7053 35.1245 64.7053 34.7988C64.7053 33.8283 64.5422 32.9257 64.216 32.0842C63.8899 31.2495 63.5093 30.4623 63.0744 29.7362C62.6395 29.01 62.2182 28.3043 61.8105 27.6324C61.4028 26.9606 61.1174 26.2684 60.9543 25.5694H60.8727C60.764 26.5398 60.8388 27.6528 61.0834 28.8947C61.3348 30.1366 61.6202 31.3649 61.9532 32.5796C62.2862 33.7944 62.6055 34.9006 62.9181 35.9049C63.2239 36.9025 63.3802 37.6219 63.3802 38.0494V39.1827C63.3802 39.6171 63.3462 40.0446 63.2783 40.4789H63.3394C63.985 39.3456 64.6441 38.3887 65.3169 37.6015C65.9896 36.8211 66.5944 36.0203 67.1312 35.2127C67.6681 34.4052 68.103 33.4958 68.4224 32.4982C68.7485 31.5006 68.9048 30.1909 68.9048 28.5689C68.9048 27.8156 68.7757 26.947 68.5175 25.9765C68.2593 25.0061 68.0418 24.3003 67.8652 23.8728H67.7768C67.7768 24.3614 67.7972 24.7686 67.8312 25.0875C67.8652 25.4133 67.8855 25.8408 67.8855 26.3837C67.8855 26.8656 67.7564 27.4899 67.4914 28.25C67.2264 29.01 66.9002 29.8447 66.5061 30.7609L66.4925 30.7405ZM64.0258 25.0672C63.7064 24.2528 63.0065 23.3638 61.9396 22.3934C61.3552 21.8505 60.8863 21.4229 60.5398 21.0972C60.1932 20.7714 59.9146 20.4864 59.6971 20.2421C59.4865 19.9978 59.3098 19.7874 59.1807 19.5974C59.0448 19.4074 58.9225 19.1766 58.8205 18.9052H58.739C58.8477 19.3938 59.0584 20.1742 59.3778 21.2533C59.6971 22.3323 60.1252 23.2824 60.6621 24.0899C61.5727 25.3861 62.293 26.4109 62.8298 27.1709C63.3598 27.931 63.7811 28.5757 64.0733 29.1186C64.3655 29.6615 64.5694 30.1162 64.6713 30.4962C64.7801 30.8763 64.8616 31.3038 64.9092 31.7924H65.0111C65.3984 30.0619 65.8741 28.4875 66.4313 27.0556C66.9885 25.6237 67.2672 24.2053 67.2672 22.8005C67.2672 21.5586 67.0633 20.3032 66.6488 19.0341C66.2411 17.7651 65.4596 16.401 64.3112 14.942H64.2296C64.3927 15.3763 64.5762 15.831 64.7868 16.3196C64.9975 16.8014 65.1062 17.3172 65.1062 17.8601C65.1062 19.5906 65.0519 20.9954 64.9499 22.0744C64.848 23.1534 64.7936 24.1035 64.7936 24.9111C64.7936 25.5626 64.8004 26.0851 64.8208 26.4923C64.8412 26.8995 64.8616 27.3202 64.8956 27.7478H64.814C64.6034 26.7773 64.3316 25.8883 64.0122 25.074L64.0258 25.0672ZM60.4446 12.1799C60.7436 12.7228 60.9883 13.354 61.1785 14.0869C61.3688 14.813 61.5862 15.6681 61.8241 16.6386C62.0687 17.609 62.4357 18.7966 62.9181 20.2014V20.2828C62.3745 19.2038 61.7629 18.3487 61.0834 17.7312C60.4039 17.1068 59.7243 16.5707 59.0448 16.1092C58.3652 15.6477 57.7401 15.1795 57.1693 14.6909C56.5985 14.2023 56.1228 13.5304 55.7422 12.6686H55.6607C55.9869 13.639 56.2451 14.4126 56.4354 14.9759C56.6256 15.546 56.8159 16.0142 57.0062 16.3942C57.1964 16.7743 57.4275 17.0932 57.6993 17.3647C57.9711 17.6361 58.3245 17.9619 58.7594 18.3351C59.9554 19.3599 60.995 20.2285 61.8649 20.9275C62.7347 21.6333 63.4414 22.4409 63.9918 23.357V17.6836C63.9918 16.0074 63.5297 14.4941 62.6055 13.1436C61.6814 11.7931 60.4922 10.9313 59.0312 10.5512V10.6327C59.6835 11.1213 60.1524 11.6302 60.4514 12.1731L60.4446 12.1799ZM51.0534 58.7952C50.5642 58.7952 50.1157 58.7545 49.7148 58.6731C49.307 58.5916 48.811 58.4966 48.213 58.388V58.4084C47.7305 58.2523 47.1869 58.0691 46.5821 57.8519C45.9569 57.6348 45.2094 57.3633 44.3396 57.0376C42.8175 56.4947 41.6623 56.0943 40.874 55.816C40.0858 55.5446 39.3111 55.4088 38.5568 55.4088C37.8501 55.4088 37.0618 55.5039 36.192 55.6939C35.3834 55.8703 34.7922 56.006 34.4116 56.1146C34.0719 56.0128 33.5079 55.8703 32.706 55.6939C31.843 55.5039 31.0547 55.4088 30.3548 55.4088C29.6005 55.4088 28.8259 55.5446 28.0444 55.8092C27.2629 56.0807 26.1145 56.4811 24.5992 57.0172C22.8188 57.6619 21.4937 58.1166 20.6307 58.3813C19.7677 58.6527 18.8775 58.7817 17.9601 58.7817C17.5796 58.7817 17.199 58.7545 16.8253 58.7002C16.4447 58.6459 16.1253 58.5645 15.8535 58.4559C15.8535 58.4559 15.0925 58.232 14.6711 58.0555C14.2362 57.8655 13.7198 57.6348 13.1218 57.3633L13.0403 57.4447C13.9101 58.422 15.8943 59.6299 15.8943 59.6299C17.3961 60.4986 18.8911 60.9329 20.3928 60.9329C21.0384 60.9329 21.6228 60.8922 22.1392 60.8108C22.6489 60.7293 23.1653 60.58 23.675 60.3629C24.1846 60.1457 24.7554 59.881 25.3738 59.5553C25.9922 59.2295 26.7397 58.802 27.6027 58.2659C28.5201 57.6755 29.2879 57.2004 29.9131 56.8543C30.5315 56.5082 31.2518 56.3318 32.0604 56.3318C32.3866 56.3318 32.706 56.3861 33.0322 56.4947C31.9517 57.0851 30.7218 57.7976 29.3423 58.6256C27.9628 59.4603 26.6242 60.5665 25.3263 61.9577L26.7057 63.1724C27.8949 61.7676 29.22 60.4782 30.681 59.2906C32.1012 58.137 33.3448 57.3701 34.4184 56.9833C35.4853 57.3701 36.7424 58.137 38.1899 59.2906C39.678 60.4782 41.0167 61.7676 42.2059 63.1724L43.5854 61.9577C42.2874 60.5665 40.9352 59.4535 39.5285 58.6256C38.1219 57.7976 36.8783 57.0851 35.7979 56.4947C36.2328 56.3861 36.5862 56.3318 36.858 56.3318C37.6734 56.3318 38.3937 56.5082 39.0121 56.8543C39.6373 57.2072 40.4119 57.6755 41.3361 58.2659C42.1515 58.7477 42.8583 59.1685 43.4562 59.5146C44.0542 59.8675 44.6115 60.1321 45.1279 60.3221C45.6444 60.5122 46.1472 60.6615 46.6365 60.7701C47.1121 60.8786 47.6422 60.9261 48.2266 60.9329H48.5528C49.6876 60.9329 50.9243 60.6615 52.2494 60.1254C53.5745 59.5824 54.7773 58.6934 55.8646 57.4515V57.3701C54.7229 57.8926 53.8327 58.2591 53.1804 58.4695C52.528 58.6799 51.8281 58.7817 51.067 58.7817L51.0534 58.7952ZM69 35.2806C69 35.1992 69 35.1109 68.9932 35.0295C68.9864 34.9006 68.9728 34.7784 68.9592 34.6563C68.9252 34.4119 68.8709 34.1541 68.8029 33.8826C68.6398 35.0159 68.3068 35.966 67.7904 36.7193C67.2807 37.4726 66.6556 38.2462 65.9353 39.0266C65.8945 39.0742 65.8469 39.1217 65.8062 39.1692C65.1062 39.9157 64.3384 40.7368 63.4957 41.6326C62.6191 42.5623 61.7289 43.7431 60.8252 45.1751L60.8048 45.1547C61.1174 44.5575 61.4299 43.7907 61.7561 42.8474C62.0755 41.9041 62.2386 41.1304 62.2386 40.54C62.2386 39.9496 62.1978 39.4203 62.1163 38.9588C62.0347 38.4973 61.9396 38.0019 61.8309 37.459C61.7221 36.9229 61.627 36.3257 61.5455 35.6742C61.4639 35.0227 61.4232 34.2423 61.4232 33.3193H61.3416C61.3416 33.3193 61.328 33.3533 61.3212 33.3736C61.3212 33.3601 61.3212 33.3465 61.3212 33.3261H61.2397C60.8184 34.4595 60.5262 35.5181 60.3699 36.4886C60.2136 37.459 60.0233 38.8366 59.8127 40.6214C59.7039 41.6462 59.6156 42.5284 59.534 43.2545C59.4525 43.9807 59.3642 44.6457 59.2554 45.2361C59.1467 45.8333 59.004 46.3695 58.8205 46.8581C58.6642 47.272 58.4672 47.7132 58.2565 48.1678C58.2158 48.2425 58.175 48.3171 58.1274 48.3918L58.1614 48.3714C58.1614 48.3714 58.1546 48.3918 58.1478 48.3986L60.1592 47.0685L64.2092 44.4218C64.6985 44.096 65.2218 43.6278 65.7926 43.0034C66.3566 42.3859 66.873 41.6665 67.3351 40.859C67.6205 40.3568 67.8719 39.8342 68.103 39.2777C68.2525 38.9384 68.3884 38.5923 68.5107 38.2327C68.8369 37.2894 68.9932 36.3528 68.9932 35.4367C68.9932 35.3824 68.9932 35.3349 68.9932 35.2874L69 35.2806ZM45.3997 11.4402C45.5356 11.4945 45.6783 11.576 45.8346 11.6777C45.9365 11.7863 46.0317 11.8949 46.1064 12.0035C46.188 12.1121 46.2763 12.1664 46.385 12.1664C46.5413 12.1664 46.6229 12.1121 46.6229 12.0035C46.6229 11.8949 46.6093 11.8542 46.5821 11.8813C46.5549 11.9085 46.5413 11.8678 46.5413 11.7592C46.5413 11.542 46.487 11.3791 46.385 11.2774C46.1744 11.0602 45.9366 11.0059 45.6783 11.1145C45.624 11.0602 45.5696 11.033 45.522 11.033H45.4405C45.2842 11.033 45.2026 11.0873 45.2026 11.1959C45.2026 11.3045 45.2706 11.3859 45.3997 11.4402ZM36.8036 9.49255H36.9667C37.4016 9.35682 37.7278 9.28896 37.9452 9.28896H39.0868C39.3043 9.28896 39.4674 9.2211 39.5761 9.08537C39.6848 8.94964 39.7664 8.82749 39.8207 8.71212C39.5489 8.38638 39.2227 8.18957 38.8422 8.13528C38.4617 8.08099 38.1898 8.05385 38.0268 8.05385C37.918 8.05385 37.5919 8.15564 37.0482 8.35245C36.5046 8.54925 36.1784 8.67819 36.0697 8.73248C35.7979 8.67819 35.6348 8.73248 35.5804 8.90214C35.6892 9.01751 35.8387 9.13966 36.0289 9.28217C36.2192 9.42469 36.4774 9.49255 36.8036 9.49255ZM34.3505 53.8819C47.846 53.8819 58.8205 42.9152 58.8205 29.4376C58.8205 15.9599 47.846 5 34.3505 5C20.8549 5 9.87362 15.9667 9.87362 29.4444C9.87362 42.922 20.8549 53.8887 34.3505 53.8887V53.8819ZM11.124 30.0551H14.8478C14.9022 31.7246 15.1672 33.3329 15.6157 34.8734C15.507 34.8463 15.4186 34.7988 15.3303 34.6766L15.2148 34.5612L14.8071 33.9912L14.1275 34.2355C14.1275 34.6155 13.9916 34.7513 13.7198 34.6427C13.6111 34.5341 13.5023 34.4798 13.3936 34.4798C12.9587 34.4798 12.7005 34.7105 12.6189 35.172C12.5374 35.6335 12.4966 35.9457 12.4966 36.1085L13.0674 37.5744C13.1762 37.7372 13.3393 37.7644 13.5567 37.6558C13.7742 37.9273 13.9372 38.1173 14.046 38.2259C14.1547 38.3344 14.2974 38.3887 14.4673 38.3887C14.6372 38.3887 14.7187 38.3073 14.7187 38.1444H14.8003C14.9158 38.253 15.0245 38.3752 15.14 38.5109C15.2487 38.6466 15.3914 38.7688 15.5613 38.8773V38.8027C15.7652 38.9927 15.9962 39.0945 16.2477 39.0945C16.3564 39.4813 16.5127 39.7799 16.7301 39.9971C16.9476 40.2143 17.1582 40.3296 17.3757 40.3296C17.4844 40.3296 17.5931 40.2753 17.7019 40.1668C17.865 40.6079 18.0009 40.8793 18.1096 40.9879C18.2183 41.0422 18.3542 41.1236 18.5173 41.2322C18.6804 41.3408 18.7891 41.4222 18.8435 41.4765H19.0066C19.0609 41.6937 19.1968 41.9108 19.4143 42.128C19.5774 42.2909 19.7405 42.4266 19.9036 42.542C19.89 42.542 19.8696 42.5555 19.856 42.5623C19.8696 42.5623 19.89 42.5759 19.9036 42.5759C19.924 42.5759 19.9443 42.5759 19.9647 42.5827C20.0191 42.6438 20.0734 42.7048 20.1278 42.7659L17.498 45.3922C13.679 41.3679 11.2803 35.9864 11.124 30.0483V30.0551ZM29.0569 23.2009C28.9822 23.1534 28.9074 23.1059 28.8462 23.072L28.6016 22.8277C29.9947 21.6129 31.775 20.8393 33.7321 20.7036V23.2892C33.6981 23.262 33.6574 23.2417 33.6166 23.2281C33.5894 23.2009 33.5758 23.1738 33.5554 23.1466C33.5486 23.1466 33.535 23.1466 33.5282 23.1399C33.5011 23.1127 33.4399 23.0991 33.3312 23.0991C33.2972 23.0991 33.27 23.1127 33.236 23.1127C33.2292 23.1127 33.2157 23.1059 33.2157 23.0991C33.1545 23.0991 33.0865 23.1059 33.039 23.1263C32.9642 23.1534 32.8963 23.167 32.8487 23.167C32.8079 23.167 32.7808 23.1602 32.7468 23.1399C32.672 23.0856 32.6245 22.9634 32.6245 22.7734C32.6245 22.7734 32.6177 22.7734 32.6109 22.7734C32.6109 22.7734 32.6109 22.7666 32.6109 22.7598C32.3934 22.8684 32.2643 22.977 32.2371 23.0856C32.2099 23.1941 32.1692 23.3842 32.1148 23.6556C32.0604 23.8728 31.9245 24.0221 31.7071 24.1035C31.4896 24.1849 31.3198 24.28 31.211 24.3885L30.9664 24.2257H30.5519C30.4432 24.1171 30.3616 24.0492 30.3072 24.0221C30.2529 23.9949 30.1985 23.9542 30.1442 23.8999C30.0898 23.8456 30.0694 23.8456 30.0694 23.8999C29.9539 23.8999 29.8791 23.961 29.852 24.0832L29.6073 23.8388L29.6753 23.8185V23.6556C29.5666 23.547 29.3627 23.3977 29.0637 23.2077L29.0569 23.2009ZM27.7182 21.9455L25.2175 19.4481C27.4872 17.3783 30.4567 16.0685 33.7253 15.9192V19.4549C31.4285 19.5974 29.3355 20.5135 27.7182 21.9455ZM29.1249 33.7062C29.254 33.5772 29.1996 33.3397 29.2472 33.1836L28.9686 33.4415C29.2404 33.17 29.4035 32.9665 29.4578 32.8307C29.5122 32.695 29.5937 32.5457 29.7025 32.3828C29.7025 32.3828 29.7093 32.3828 29.7228 32.3828C29.8112 32.5593 29.9063 32.7289 30.015 32.8918L27.7318 35.172C26.828 34.1337 26.1689 32.8782 25.8359 31.5006C26.033 31.5278 26.23 31.5821 26.4067 31.6635C26.4883 31.7042 26.9232 32.125 26.9232 32.125C27.0319 32.125 27.1406 32.0978 27.2493 32.0435L27.5823 32.2878C27.5823 32.505 27.6095 32.6407 27.6639 32.695C27.6639 32.7493 27.7454 32.8172 27.9085 32.8986C28.0716 32.98 28.1803 33.075 28.2415 33.1836L28.4045 33.1022C28.4045 33.0479 28.391 32.9393 28.3638 32.7764C28.3366 32.6136 28.3502 32.5321 28.4045 32.5321L28.5676 33.1022L28.7307 33.7537V33.7672C28.887 33.8012 29.0433 33.8012 29.1384 33.7062H29.1249ZM33.9903 36.2985C34.1262 36.4343 34.1942 36.5293 34.1942 36.5836C34.1942 36.7464 33.9767 36.8279 33.5418 36.8279C33.3787 36.8279 33.27 36.984 33.2157 37.2894C33.1613 37.6015 33.1069 37.8594 33.0526 38.063C33.005 38.0562 32.9642 38.0426 32.9167 38.0358C32.9167 38.0494 32.9235 38.0562 32.9302 38.063C31.2926 37.7983 29.7976 37.0858 28.5948 36.0475L30.7965 33.8487C31.612 34.6291 32.6856 35.1449 33.868 35.267C33.8748 35.4503 33.902 35.5656 33.9496 35.6131C33.8408 35.7217 33.7865 35.8574 33.7865 36.0203C33.7865 36.0746 33.8544 36.1696 33.9903 36.3053V36.2985ZM23.1449 36.4478C23.0906 35.7421 23.0362 35.2806 22.9819 35.0634C22.9275 34.8463 22.8459 34.602 22.7372 34.3305C22.6761 33.8419 22.5945 33.4754 22.479 33.2311C22.3635 32.9868 22.1053 32.6475 21.7043 32.2132V31.7381C21.7043 31.6838 21.65 31.5278 21.5412 31.2631V31.1817C21.5412 31.0731 21.582 30.9984 21.6704 30.9713C21.7587 30.9441 22.0441 30.8423 22.5334 30.6795C22.5334 30.2926 22.5605 30.0416 22.6149 29.9262L23.2061 30.028C23.376 30.028 23.4575 29.9194 23.4575 29.6887C23.4575 29.6344 23.4032 29.4647 23.2944 29.1865C23.1857 28.9082 23.1314 28.7114 23.1314 28.5961C23.1314 28.4807 23.2129 28.3857 23.376 28.3043C23.5391 28.2228 23.7022 28.1753 23.8653 28.1753C24.1371 28.1753 24.3205 28.2703 24.4293 28.4536C24.538 28.6436 24.5924 28.8404 24.5924 29.0575C24.5924 29.2204 24.5788 29.3629 24.5516 29.4986C24.5244 29.6344 24.5108 29.7565 24.5108 29.8583L24.6739 29.9398C24.5652 30.4759 24.3477 30.7405 24.0283 30.7405C23.8653 30.7405 23.7429 30.6727 23.6614 30.537C23.5798 30.4012 23.4847 30.3334 23.3828 30.3334C23.3284 30.3334 23.3012 30.3605 23.3012 30.4148C23.3012 30.5234 23.3284 30.6387 23.3828 30.7473C23.4371 30.8559 23.4643 30.9916 23.4643 31.1613C23.4643 31.5413 23.2944 31.6838 22.9479 31.5753C22.8392 31.7789 22.9479 31.8806 23.2876 31.8806C23.4032 32.2064 23.5119 32.3489 23.6274 32.2946C23.6818 32.2403 23.7361 32.0571 23.7973 31.7449C23.8517 31.426 23.9128 31.2156 23.9672 31.107L24.0487 31.1884L24.3885 31.107C24.3953 31.1477 24.4021 31.1884 24.4157 31.2292C24.4497 31.2292 24.4836 31.2292 24.5176 31.2292C24.8506 33.0547 25.6796 34.7105 26.862 36.0475L23.4168 39.4881C23.2741 39.332 23.1789 39.1488 23.2265 38.9452C23.3012 38.6127 23.6342 38.4091 23.675 38.0698C23.675 38.0426 23.7565 37.4183 23.7565 37.4183C23.3624 36.8754 23.1585 36.5496 23.1585 36.4411L23.1449 36.4478ZM21.1743 31.3581C21.2287 31.4667 21.2558 31.5753 21.2558 31.6838C21.2558 31.8467 21.2015 31.9146 21.0928 31.8874C21.0724 31.8874 21.052 31.8874 21.0316 31.8874C20.9161 31.2834 20.8481 30.6727 20.8141 30.0416H21.4937C21.4801 30.1841 21.4597 30.2926 21.4189 30.3741C21.3646 30.4827 21.2966 30.5912 21.2151 30.6998C21.1335 30.8084 21.0928 30.917 21.0928 31.0256C21.0928 31.1341 21.1199 31.2427 21.1743 31.3513V31.3581ZM20.8141 28.82C20.9636 25.5558 22.2751 22.5834 24.3477 20.3167L26.8484 22.8141C26.8484 22.8141 26.8008 22.8684 26.7805 22.8955C26.631 22.9295 26.4883 22.9838 26.3456 23.0516C26.2368 23.1806 26.1213 23.3367 25.9854 23.5267C25.6049 23.6895 25.3466 23.8253 25.2107 23.9339C25.0748 24.0424 24.871 24.2596 24.5992 24.5853C24.273 24.7482 24.0691 24.8432 23.9876 24.8704C23.906 24.8975 23.8109 24.9654 23.7022 25.074C23.8109 25.3454 23.8109 25.4947 23.7022 25.5219C23.5934 25.549 23.3216 25.6169 22.8867 25.7254C22.8324 25.7254 22.778 25.7526 22.7236 25.8069L22.479 26.0512C22.4246 26.1598 22.3975 26.2548 22.3975 26.3362C22.3975 26.4177 22.3703 26.5127 22.3159 26.6212C22.1528 26.7298 22.0169 26.8655 21.9082 27.0284C21.8199 27.2456 21.8199 27.4899 21.9082 27.7613L22.0101 28.5757C22.0101 28.5757 21.9829 28.5757 21.9761 28.5757C22.0101 28.6571 22.0305 28.7386 22.0441 28.82H20.8073H20.8141ZM27.7182 36.9297C28.9346 38.0087 30.4228 38.7823 32.0604 39.1692C31.9449 39.2099 31.8226 39.2506 31.7003 39.2845C31.4285 39.366 31.2654 39.5424 31.211 39.8139C31.1567 40.1396 31.0343 40.35 30.8441 40.4314C30.6538 40.5129 30.5859 40.635 30.6402 40.8047C30.912 41.0761 31.1023 41.4087 31.211 41.7887C31.3198 42.1755 31.5916 42.4198 32.0265 42.5284L32.5157 42.6913C32.6584 42.6913 32.8215 42.7523 32.9982 42.8677C33.1409 42.8881 33.2836 42.9084 33.4263 42.9356C30.2733 42.7252 27.4124 41.4358 25.2175 39.427L27.7182 36.9297ZM24.3409 18.5794L21.8674 16.1092C24.9933 13.1843 29.152 11.352 33.7253 11.1959V14.6909C30.117 14.8402 26.8348 16.2857 24.3409 18.5794ZM23.4711 19.4481C21.1743 21.9387 19.7269 25.2165 19.5774 28.82H16.0778C16.2341 24.2528 18.0688 20.1064 20.9976 16.9779L23.4711 19.4481ZM19.5774 30.0551C19.6046 30.6659 19.6725 31.2699 19.7677 31.8603C19.7269 31.7856 19.6793 31.7042 19.6317 31.616C19.4347 31.3513 19.2784 31.2156 19.1493 31.2156C18.9862 31.2156 18.8707 31.2835 18.8163 31.4192C18.7619 31.5549 18.6804 31.6771 18.5717 31.7856C18.13 32.0571 17.831 32.1928 17.6679 32.1928C17.4504 32.41 17.2806 32.7357 17.1718 33.17C17.1175 33.2786 17.1311 33.3872 17.2126 33.4958C17.2941 33.6044 17.2534 33.713 17.0903 33.8215C17.199 34.0387 17.2262 34.1744 17.1718 34.2287C17.2262 34.3373 17.2126 34.378 17.1311 34.3509C17.0495 34.3237 16.9816 34.3373 16.9272 34.3916C16.8796 34.4459 16.8389 34.507 16.8117 34.5748C16.3836 33.1293 16.1321 31.616 16.0778 30.0483H19.5774V30.0551ZM33.7253 52.6332C27.7862 52.4772 22.3907 50.0884 18.3678 46.2677L20.9976 43.6414C24.3477 46.7834 28.8123 48.765 33.7253 48.9143V52.6332ZM33.7253 47.686C29.1724 47.5299 25.0408 45.7112 21.915 42.8202C22.1664 42.9356 22.3907 42.9967 22.5945 42.9967C22.7576 42.9967 22.9751 42.9424 23.2469 42.827C23.5187 42.7116 23.7633 42.5963 23.9808 42.4809C24.307 42.4809 24.5516 42.4266 24.7147 42.318C24.9321 42.3723 25.136 42.3723 25.3263 42.318C25.5165 42.2637 25.6117 42.128 25.6117 41.9108C25.6117 41.748 25.5165 41.5987 25.3195 41.4629C25.1224 41.3272 25.0273 41.2051 25.0273 41.0965C25.0273 41.0422 24.9729 40.9743 24.8642 40.8929C24.7758 40.8318 24.5992 40.6282 24.3341 40.3093C26.828 42.5963 30.1102 44.0417 33.7185 44.191V47.686H33.7253ZM34.3845 38.6127V38.5923C33.9835 38.5923 33.7185 38.5448 33.5758 38.4634C33.5486 38.3955 33.5214 38.3277 33.4943 38.253C33.5622 38.1987 33.6913 38.1105 33.8748 38.0019C34.099 37.8662 34.2689 37.7983 34.3845 37.7983V37.588L34.9824 37.1401C35.0912 37.0858 35.1659 37.0586 35.1931 37.0586C35.2203 37.0586 35.3766 37.0043 35.6552 36.8957C35.7095 36.8957 35.9202 36.9908 36.2872 37.1808C36.6541 37.3708 36.858 37.4658 36.9191 37.4658L37.0007 37.1401C37.1094 37.1401 37.2725 37.2486 37.4899 37.4658C37.5987 37.4658 37.7346 37.4115 37.8977 37.3029C37.952 37.1401 37.952 37.0043 37.8977 36.8957C37.952 36.8957 38.0336 36.9229 38.1423 36.9772C38.1966 36.9772 38.2374 36.9908 38.2646 37.0179C38.2918 37.045 38.3326 37.0586 38.3869 37.0586H38.4685C38.5772 37.0586 38.7267 36.9908 38.917 36.855C39.1072 36.7193 39.2567 36.6243 39.3654 36.57C39.4198 36.5157 39.4742 36.5157 39.5285 36.57C39.5829 36.6243 39.6101 36.7329 39.6101 36.8957C39.6101 37.3301 39.379 37.6558 38.917 37.873C38.4549 38.0901 38.0607 38.253 37.7346 38.3616C37.6802 38.4159 37.6122 38.538 37.5307 38.7281C37.4492 38.9181 37.354 39.0131 37.2453 39.0131C37.0278 39.0131 36.6949 38.9588 36.2464 38.8502C36.192 38.7959 36.1037 38.633 35.995 38.3616C35.8251 38.3616 35.628 38.3887 35.4106 38.443L34.7446 38.6059C34.6291 38.6466 34.5136 38.6466 34.398 38.633L34.3845 38.6127ZM37.918 35.9253C37.9724 35.6538 38.1083 35.4774 38.3258 35.396C38.5432 35.3145 38.7607 35.2738 38.9781 35.2738C38.9781 35.4367 38.8286 35.5996 38.5296 35.7624C38.2306 35.9253 38.0539 36.0067 37.9996 36.0067L37.918 35.9253ZM40.4391 33.9301C40.6566 34.0658 40.7653 34.2694 40.7653 34.5409C40.7653 34.758 40.6566 34.8666 40.4391 34.8666C40.276 34.8666 40.1401 34.6766 40.0314 34.2966C39.6509 34.188 39.4334 34.0116 39.379 33.7672C39.3247 33.5229 39.3519 33.3736 39.4606 33.3193C39.5693 33.2651 39.678 33.2243 39.7868 33.1972C39.8955 33.17 39.9227 33.2922 39.8683 33.5637C40.0314 33.6722 40.2217 33.7944 40.4391 33.9301ZM48.2945 20.276C48.3489 20.276 48.4033 20.3032 48.4576 20.3575C48.6751 20.3575 48.8653 20.4118 49.0284 20.5203C49.1915 20.6289 49.5245 21.0361 50.0138 21.7419C50.0681 21.7419 50.1361 21.8233 50.2176 21.9862C50.2992 22.1491 50.3943 22.2305 50.503 22.2305C50.5982 22.2305 50.7477 22.183 50.9243 22.1015C50.9447 22.0201 50.9583 21.9522 50.9719 21.8776C51.9436 24.0085 52.528 26.3498 52.6096 28.8268H49.1575C49.1575 28.8268 49.1711 28.7861 49.1711 28.7657C49.2255 28.4536 49.0964 28.1414 48.9809 27.8564C48.811 27.4152 48.7566 27.1166 48.8653 26.6552C48.9469 26.3023 48.9605 26.0783 48.9061 25.963C48.743 25.963 48.6343 25.9901 48.5799 26.0444C48.5256 26.0987 48.4576 26.2208 48.3761 26.4109C48.2945 26.6009 48.2266 26.7502 48.1722 26.8588V26.9063C48.1382 26.9809 48.1111 27.0352 48.1111 27.0556C48.1111 27.0827 48.0839 27.1506 48.0295 27.2592C47.9752 27.4763 47.9208 27.6935 47.8664 27.9106C47.8189 28.1074 47.8189 28.3246 47.8596 28.5621C47.8596 28.5621 47.8596 28.5689 47.8664 28.5757C47.8664 28.6571 47.88 28.7386 47.88 28.8268H46.1268C46.2355 28.7182 46.3579 28.63 46.5006 28.5825H46.4462L46.9219 28.345C46.8132 28.2907 46.7588 28.2092 46.7588 28.1074C46.7588 27.9446 46.786 27.8564 46.8403 27.8292C46.8947 27.8021 47.051 27.7342 47.316 27.6324C47.4179 27.5238 47.5674 27.2727 47.7509 26.8723C47.9548 26.4177 48.3829 25.7662 48.3829 25.2572C48.3829 25.1283 48.2198 24.9654 48.1994 24.8364C48.1858 24.7279 48.2402 24.6057 48.2402 24.4903C48.2606 23.9203 48.4984 22.9295 47.7645 22.7462C47.7101 22.7462 47.683 22.6648 47.683 22.5087C47.8528 22.3934 47.9072 22.183 47.8528 21.8912H47.35C47.35 21.8369 47.3908 21.7419 47.4723 21.6061C47.5538 21.4704 47.6014 21.3483 47.6014 21.2397C47.6014 21.0768 47.5199 20.9954 47.35 20.9954C47.1801 20.9954 47.0442 21.0225 46.9287 21.0768C46.8131 21.1311 46.7316 21.1582 46.6772 21.1582C46.6229 21.1582 46.5821 21.1582 46.5481 21.1379C46.5074 21.0768 46.4666 21.0225 46.4258 20.9682C46.4258 20.7036 46.3035 20.4389 46.0657 20.1742C45.8346 19.9164 45.6172 19.7603 45.4133 19.6924C45.4065 19.6856 45.3997 19.672 45.3861 19.6585C45.4201 19.5363 45.4201 19.4209 45.3861 19.3124L46.0725 18.6269L47.0578 18.9798C47.0578 19.2513 47.1461 19.4413 47.316 19.5499C47.3704 19.6042 47.4859 19.6856 47.6558 19.7942C47.8121 19.896 47.9412 19.991 48.0499 20.086V20.1335C48.1586 20.2421 48.2402 20.2964 48.2945 20.2964V20.276ZM44.9376 43.9332C44.8833 43.8789 44.8153 43.8517 44.7338 43.8517C44.6522 43.8517 44.6115 43.7974 44.6115 43.6889C44.6115 43.5803 44.693 43.4717 44.8561 43.3631C45.0192 43.2545 45.1551 43.0645 45.2706 42.7931C45.3793 42.5759 45.4337 42.413 45.4337 42.3044C45.4337 42.1959 45.3929 42.128 45.3114 42.1009C45.2298 42.0737 45.1347 42.0058 45.0192 41.8973C44.9104 41.843 44.7881 41.7887 44.6522 41.7344C44.5163 41.6801 44.3668 41.5987 44.2037 41.4901C44.0406 41.3815 43.9591 41.2458 43.9591 41.0829C43.9591 41.0286 43.9999 40.8929 44.0814 40.6757C44.1086 40.6011 44.1426 40.5264 44.1698 40.4586C44.2309 40.4043 44.2921 40.35 44.3532 40.2957L46.2355 42.1755C46.2355 42.3927 46.3715 42.5148 46.6161 42.5555L46.8267 42.7591C46.1676 43.3699 45.4677 43.9332 44.7202 44.4489C44.7542 44.3743 44.7949 44.2996 44.8561 44.2318C44.8833 44.2046 44.9172 44.1843 44.9512 44.1639C44.9716 44.0553 44.9648 43.9739 44.9376 43.9196V43.9332ZM43.8028 34.9888C43.6397 34.9345 43.4698 34.9616 43.3068 35.0702C43.0893 35.1245 42.9194 35.2806 42.8107 35.5521C42.8107 35.6063 42.7835 35.6335 42.7291 35.6335C42.6204 35.6335 42.5117 35.6606 42.403 35.7149C42.2399 35.7692 42.104 35.8235 41.9952 35.8778C41.8322 35.8778 41.7506 35.8235 41.7506 35.7149C41.7506 35.552 41.9953 35.4435 42.4845 35.3892C42.702 35.1245 42.8311 34.9684 42.8854 34.9141C42.933 34.8598 43.0621 34.8056 43.266 34.7513C43.4698 34.6427 43.6737 34.4459 43.8776 34.1541C44.0814 33.8623 44.1833 33.6926 44.1833 33.6383H44.2581C44.2581 33.903 44.3736 34.0387 44.5979 34.0387C44.7677 34.0387 44.9105 33.8487 45.026 33.4754C45.3657 33.584 45.5968 33.6383 45.7055 33.6383C45.9909 33.6383 46.188 33.5365 46.3035 33.3261H47.3228C47.3228 33.3261 47.3092 33.3804 47.3024 33.4008C47.2956 33.4211 47.2888 33.4483 47.2752 33.4686C46.7112 35.2806 45.7667 36.9365 44.5435 38.3344C44.5367 38.253 44.5231 38.1716 44.5163 38.0901C44.4959 38.1173 44.2785 37.3504 44.2241 37.3504C44.1222 37.3504 43.9931 37.5404 43.8368 37.9205C43.6805 38.3005 43.5786 38.5448 43.5242 38.6534L42.7088 38.8163C42.4913 38.8706 42.2535 38.8977 41.9749 38.8977C41.8661 38.8977 41.6351 38.8027 41.2817 38.6127C40.9284 38.4227 40.6973 38.3277 40.5886 38.3277C40.4255 38.2734 40.1945 38.2191 39.8955 38.1648C39.5965 38.1105 39.447 38.0291 39.447 37.9205C39.447 37.7576 39.5557 37.6762 39.7732 37.6762C39.8819 37.6762 40.0993 37.7169 40.4255 37.7983C40.7517 37.8798 41.0779 37.9612 41.4041 38.0426C41.7302 38.1241 42.0292 38.2055 42.301 38.2869C42.5729 38.3684 42.7359 38.4091 42.7903 38.4091L43.2796 38.2462C43.2796 38.1376 43.3339 37.9951 43.4427 37.7983C43.5514 37.6083 43.6057 37.459 43.6057 37.3504C43.7213 37.1333 43.8232 36.8347 43.9115 36.4546C43.9931 36.0746 44.0406 35.7489 44.0406 35.4774C44.0406 35.2059 43.9591 35.0499 43.7892 34.9956L43.8028 34.9888ZM45.9637 30.0551H47.8868C47.8528 30.8695 47.7373 31.6635 47.5674 32.4371C47.4043 32.0571 47.2616 31.8196 47.1529 31.711C47.0442 31.6024 46.8199 31.3852 46.4938 31.0595C46.4394 30.788 46.3986 30.598 46.3715 30.4895C46.3579 30.4419 46.3171 30.3741 46.2559 30.2926C46.1472 30.2248 46.0453 30.1501 45.9705 30.0551H45.9637ZM46.7588 40.0107C46.5957 40.0107 46.5142 40.0514 46.5142 40.1328C46.5142 40.2143 46.487 40.3771 46.4394 40.635L45.2298 39.427C46.8539 37.6626 48.0567 35.5045 48.6683 33.109C48.6887 33.0954 48.7091 33.075 48.7294 33.0547C49.008 33.1633 49.1847 33.1633 49.2663 33.0547C49.3478 32.9461 49.3886 32.8715 49.3886 32.8172C49.3886 32.6543 49.2527 32.4439 48.9809 32.1725H48.8789C49.008 31.4803 49.0964 30.7745 49.1236 30.0551H52.6232C52.4737 34.6223 50.6321 38.7688 47.7033 41.8973L47.5538 41.748C47.5538 41.748 47.5538 41.7276 47.5538 41.714C47.5063 41.3408 47.4451 40.9743 47.3772 40.6147C47.2956 40.2075 47.0918 40.0107 46.7656 40.0107H46.7588ZM45.8958 22.373C45.8958 22.373 45.8958 22.3866 45.8958 22.3934C45.8958 22.5019 45.8686 22.6377 45.8142 22.8005C45.7599 22.9634 45.7055 23.0991 45.6511 23.2077C45.7055 23.3163 45.923 23.5063 46.3035 23.7778C46.684 24.0492 46.9287 24.2392 47.0374 24.3478C47.1461 24.5107 47.2684 24.8229 47.4043 25.2911C47.5403 25.7526 47.6082 26.0444 47.6082 26.153C47.5538 26.3701 47.4723 26.5602 47.3636 26.7298C47.1461 27.0556 46.8743 27.2184 46.5481 27.2184L46.4666 27.137C46.4666 27.0284 46.521 26.8723 46.6297 26.6552C46.7384 26.4448 46.7928 26.2819 46.7928 26.1733C47.0102 26.0105 47.1189 25.8544 47.1189 25.6915C47.0102 25.6372 46.9287 25.5965 46.8743 25.5694C46.8199 25.5422 46.684 25.4201 46.4666 25.2097C46.4666 25.0468 46.3035 24.9722 45.9773 24.9722C45.8142 24.9722 45.6783 25.0129 45.5696 25.0943C45.4609 25.1758 45.325 25.2708 45.1619 25.3793L44.9988 25.0536C45.0532 24.945 45.0803 24.8297 45.0803 24.7075L44.428 23.6217C44.2649 23.5131 43.9659 23.4181 43.531 23.3367C43.266 23.2892 43.1097 23.3095 42.8786 23.357C42.6204 23.4113 42.5049 23.357 42.2467 23.3231C41.9885 23.2892 41.8118 23.3706 41.5943 23.5267C41.3837 23.676 41.2206 23.8524 41.0575 24.056C40.9759 24.1578 41.0915 24.2867 40.8468 24.2392C40.8197 24.2392 40.7245 24.1239 40.643 24.0221L44.3396 20.3303C44.3736 20.3846 44.4008 20.4253 44.428 20.4457C44.4823 20.5 44.5911 20.6221 44.7542 20.8121C44.8697 20.9479 44.9852 21.0904 45.1007 21.2397C45.3793 21.6061 45.6443 21.9794 45.889 22.373H45.8958ZM37.0211 46.7699C37.3336 47.0209 37.6802 47.1974 38.0607 47.306C37.055 47.5096 36.0221 47.6453 34.9689 47.6792V44.1843C35.1591 44.4557 35.3358 44.6389 35.4853 44.734C35.6008 44.7882 35.8387 44.829 36.1988 44.8561C36.5658 44.8833 36.7492 44.9511 36.7492 45.0597C36.7492 45.1683 36.7085 45.2904 36.6269 45.4262C36.5454 45.5619 36.5046 45.684 36.5046 45.7926C36.5046 46.1727 36.6745 46.4984 37.0143 46.7699H37.0211ZM34.9689 52.6265V48.9075C36.3551 48.8668 37.7074 48.67 39.0121 48.3511C39.0257 48.3782 39.0393 48.4054 39.0461 48.4257C39.0529 48.4596 39.0597 48.4936 39.0665 48.5275C39.5014 48.8465 39.78 49.1043 39.8819 49.3012C39.9906 49.5183 40.2896 49.6269 40.7789 49.6269C41.0507 49.6269 41.2274 49.5726 41.3089 49.464C41.3905 49.3554 41.4856 49.2469 41.5943 49.1383C41.703 49.0297 41.839 48.9483 42.002 48.894C42.1651 48.8397 42.2739 48.7582 42.3282 48.6497C42.6 48.5411 42.7903 48.3782 42.899 48.161C43.1165 47.9982 43.2728 47.781 43.3883 47.5096C43.497 47.5096 43.6057 47.4417 43.7145 47.306C43.8232 47.1702 43.9319 46.8852 44.0406 46.4509C44.0882 46.4238 44.1358 46.3966 44.1833 46.3695C44.1833 46.3287 44.1969 46.288 44.2037 46.2473C45.4677 45.5076 46.6501 44.6254 47.7101 43.6278L50.3399 46.2541C46.3103 50.0748 40.9216 52.4636 34.9824 52.6197L34.9689 52.6265ZM51.2029 45.3922L48.5731 42.7659C51.7194 39.4203 53.6968 34.9616 53.8531 30.0551H57.577C57.4207 35.9864 55.0287 41.3747 51.2029 45.399V45.3922ZM57.577 28.82H53.8531C53.724 24.7618 52.3514 21.0157 50.0953 17.9415C50.0545 17.8262 50.0002 17.7176 49.9118 17.6022C49.8507 17.5276 49.7759 17.4733 49.7012 17.4122C49.3954 17.0254 49.076 16.6521 48.743 16.2924C48.6955 16.2042 48.6615 16.116 48.6411 16.0346L51.2029 13.4761C55.0219 17.5004 57.4207 22.882 57.577 28.82ZM34.9689 6.24868C40.908 6.40477 46.3035 8.79356 50.3263 12.6143L48.0567 14.8809C48.0023 14.7655 47.9616 14.6569 47.9276 14.5348C47.7509 14.3719 47.6354 14.2769 47.5878 14.2769C47.3704 14.1683 47.2481 13.9987 47.2209 13.7544C47.1937 13.5168 47.1257 13.3404 47.017 13.2318C46.6908 13.1232 46.4122 12.8857 46.1948 12.5125C45.9773 12.1392 45.7599 11.9492 45.5424 11.9492C45.4337 12.0035 45.257 11.9831 45.0124 11.8881C44.7677 11.7931 44.5911 11.7456 44.4823 11.7456C44.2649 11.7456 44.0746 11.7728 43.9115 11.827C43.7484 11.8813 43.5378 11.9356 43.2728 11.9899C43.2456 12.0171 43.2184 12.0442 43.1912 12.0714C40.7857 10.843 38.0947 10.1033 35.2407 9.97438C35.4581 9.63506 35.4853 9.4179 35.3222 9.30932C35.2746 9.26181 35.1523 9.33646 34.9689 9.50612V6.24868ZM34.9689 11.1959C37.687 11.2841 40.2556 11.9763 42.5457 13.13C42.5457 13.1504 42.5389 13.164 42.5321 13.1843C42.6272 13.2861 42.7359 13.4015 42.8583 13.544C42.9942 13.7069 43.0893 13.8087 43.1437 13.8629C43.2524 14.2362 43.3339 14.4805 43.3883 14.5891C43.4427 14.6977 43.5242 14.8266 43.6329 14.9895C43.5786 15.2066 43.6193 15.4306 43.7552 15.6749C43.8911 15.9192 44.0406 16.1432 44.2037 16.3603C44.2581 16.3603 44.3668 16.3467 44.5299 16.3196C44.693 16.2925 44.8289 16.2789 44.9376 16.2789C45.0464 16.2789 45.1687 16.3603 45.3046 16.5232C45.4405 16.6861 45.5356 16.8489 45.59 17.0118C45.6172 17.0661 45.6376 17.1543 45.6579 17.2833L44.659 18.2808C44.4484 17.514 44.2853 17.0661 44.1766 16.9304C44.0678 16.7946 43.8504 16.7268 43.531 16.7268C43.4766 16.6725 43.2864 16.435 42.967 16.0278C42.6408 15.6138 42.4573 15.4102 42.3962 15.4102C42.2874 15.4102 42.2059 15.4374 42.1515 15.4917C42.2059 15.6002 42.2603 15.702 42.3146 15.7835C42.369 15.8649 42.4777 16.0481 42.6408 16.3196C42.6408 16.4282 42.5864 16.4825 42.4777 16.4825C42.5321 16.6996 42.668 16.8354 42.8854 16.8964L42.8039 17.0593L43.0417 17.5343C40.7585 15.8649 37.9792 14.8402 34.9621 14.7112V11.2163L34.9689 11.1959ZM34.9689 15.926C38.2374 16.0753 41.2138 17.385 43.4766 19.4549L40.9759 21.9522C39.3519 20.5203 37.2657 19.6042 34.9689 19.4617V15.926ZM34.9689 20.7036C36.7968 20.8325 38.4685 21.5247 39.8207 22.6037C39.7596 22.6309 39.6916 22.658 39.6509 22.692C39.5965 22.7462 39.5421 22.7802 39.4878 22.8073C39.4334 22.8345 39.4062 22.8955 39.4062 22.9973C39.4062 23.1331 39.5897 23.1806 39.712 23.2009L38.7539 24.1578V24.1442C38.5908 24.2392 38.4685 24.3207 38.3937 24.4021C38.1695 24.5107 38.0471 24.6125 38.02 24.6939C37.9996 24.755 37.9724 24.85 37.9384 24.9722L37.619 25.2911C37.5783 25.3047 37.5307 25.3115 37.4831 25.3115C37.3744 25.3115 37.2045 25.2029 36.9803 24.979C36.756 24.7618 36.5929 24.6464 36.4842 24.6464C36.3143 24.6464 36.192 24.6871 36.1105 24.7754C36.0289 24.8568 35.9338 24.8704 35.8183 24.8161C35.7095 24.7075 35.8319 24.5853 36.192 24.4428C36.5522 24.3071 36.79 24.2053 36.8987 24.151C37.3404 23.8185 37.5647 23.3842 37.5647 22.848C37.5647 22.5698 37.456 22.4273 37.2317 22.4273L36.9803 22.6648C36.756 22.7666 36.5658 22.9023 36.3959 23.0584C36.2328 23.2145 36.0901 23.3502 35.9814 23.452C35.8726 23.3977 35.7028 23.3706 35.4853 23.3706H34.996C34.996 23.3706 34.9757 23.3842 34.9689 23.3977V20.6968V20.7036ZM34.2486 26.2955C34.2893 26.3769 34.3369 26.4244 34.398 26.4244C34.5543 26.4244 34.6902 26.4652 34.7922 26.5534C34.8873 26.628 35.03 26.6416 35.2135 26.6077C35.2271 26.6687 35.2611 26.723 35.3018 26.757C35.3494 26.8656 35.4513 26.9266 35.6144 26.9266C35.6552 26.9673 35.6824 27.0013 35.7163 27.0352C35.7367 27.0624 35.7571 27.0963 35.7639 27.1234C35.7911 27.2049 35.8387 27.2999 35.893 27.4152C35.9066 27.4152 35.9134 27.4152 35.927 27.4288C35.9406 27.456 35.9474 27.4695 35.961 27.4967C36.0765 27.551 36.1648 27.5645 36.2192 27.5374C36.2668 27.517 36.3415 27.5306 36.4231 27.5578C36.4231 27.6188 36.4231 27.6731 36.4366 27.741H36.4842C36.491 27.8021 36.5046 27.8699 36.5182 27.9378C36.5454 28.0735 36.559 28.1889 36.559 28.2975V28.4603C36.559 28.5146 36.5318 28.5418 36.4706 28.5418C36.2939 28.7046 36.2056 28.8607 36.2056 29.0236C36.2056 29.1322 36.2804 29.1729 36.4231 29.1458C36.5658 29.1186 36.6677 29.1593 36.7289 29.2679C36.8444 29.3765 36.9055 29.5326 36.9055 29.7497V30.4759C36.9055 30.5845 36.9463 30.6659 37.0278 30.7202C37.1094 30.7745 37.1502 30.8288 37.1502 30.8763C37.1502 31.0391 37.123 31.2427 37.0686 31.4803C37.0143 31.7246 36.9327 31.8942 36.824 32.0028C36.7696 32.0571 36.6269 32.0571 36.4027 32.0028C36.1784 31.9485 35.9814 31.9214 35.8115 31.9214C35.696 31.9214 35.5872 32.0842 35.4785 32.4032C35.363 32.6746 35.2814 32.919 35.2271 33.1361C35.1727 33.3533 35.0572 33.4619 34.8941 33.4619C34.7786 33.4619 34.6699 33.4754 34.5611 33.5026C34.5407 33.5026 34.5204 33.5026 34.5 33.5094L34.2214 33.9505L34.133 34.0658C33.1749 34.0048 32.3187 33.6112 31.6595 32.9936L32.0944 32.5593C32.3662 32.5253 32.6516 32.4575 32.8759 32.376C32.9235 32.3557 32.971 32.3421 33.0186 32.3218C33.4535 32.1317 33.4127 31.7789 33.637 31.3988C33.7797 31.1477 34.1874 30.8695 33.8612 30.5912C34.2282 29.9465 32.5293 29.9398 32.2303 30.0823C31.877 30.2519 32.1012 30.6252 31.9177 30.9034C31.8158 31.0527 31.6663 31.0527 31.5304 31.1545C31.3605 31.2835 31.0004 31.6906 30.912 32.0028H30.9052C30.7965 31.8128 30.7014 31.6092 30.6266 31.392C30.647 31.392 30.6674 31.392 30.6878 31.4056C30.6538 31.3377 30.647 31.2902 30.6674 31.2699H30.7489V31.3513C30.9664 31.4056 31.1023 31.4056 31.1567 31.3513C31.211 31.1884 31.2518 31.0391 31.279 30.9034C31.3062 30.7677 31.4557 30.4487 31.7275 29.9465C31.6255 29.8923 31.5576 29.8108 31.5372 29.7022C31.51 29.5937 31.4489 29.5665 31.3469 29.6208C31.245 29.6751 31.1906 29.7565 31.1906 29.8651C31.1906 29.9737 31.1363 30.0823 31.0411 30.1909C30.9324 30.2994 30.8305 30.3537 30.7218 30.3537C30.7218 30.1909 30.6402 30.1094 30.4771 30.1094C30.3684 30.1094 30.2597 30.1637 30.151 30.2723C30.0422 30.2723 29.784 30.2994 29.3763 30.3537C28.9686 30.408 28.7103 30.408 28.6016 30.3537C28.4929 30.2451 28.6288 30.1366 29.0093 30.028C28.955 29.7022 29.0909 29.3765 29.4171 29.044C29.6345 29.1525 29.7976 29.2068 29.9063 29.2068L30.0694 29.044H30.151C30.314 29.044 30.4092 29.1797 30.4364 29.4579C30.4635 29.7294 30.5315 29.8719 30.6402 29.8719C30.7489 29.8719 30.8577 29.8176 30.9664 29.709V29.2951C31.0751 28.8607 31.1567 28.5553 31.211 28.3925V28.1482C31.279 27.9853 31.3673 27.8496 31.4693 27.7478H31.5644C31.6731 27.6596 31.8022 27.5985 31.9449 27.5713C32.0536 27.3474 32.108 27.1777 32.108 27.0691C32.2711 27.0149 32.5565 26.8995 32.9642 26.7366C33.3719 26.5737 33.5758 26.4041 33.5758 26.2344C33.5758 26.2208 33.5758 26.2073 33.5758 26.1937C33.7593 26.153 33.9428 26.1258 34.1262 26.1123C34.1602 26.2141 34.201 26.2751 34.2486 26.3091V26.2955ZM33.7389 6.24868V9.96759C28.8259 10.1237 24.3613 12.0985 21.0112 15.2406L18.3814 12.6143C22.411 8.80034 27.7998 6.40477 33.7389 6.24868ZM17.5048 13.4829L20.1346 16.1092C16.9884 19.4617 15.0041 23.9135 14.8546 28.82H11.1308C11.2871 22.8888 13.679 17.5004 17.5048 13.4761V13.4829Z" fill="#0894e1"/>
</g>
<path d="M85.8 7.248C85.8 6.8 86.344 6.576 87.336 6.576C88.328 6.576 90.472 6.736 91.528 6.736C92.936 6.736 94.248 6.64 94.696 6.64C95.496 6.64 95.976 7.024 95.976 7.344C95.976 7.696 95.336 8.08 94.856 8.176C93.352 8.56 93.16 8.912 93.032 10.512C92.904 12.24 92.936 14.864 93.064 17.712C93.224 20.592 93.864 21.904 94.568 22.608C95.464 23.408 96.936 24.048 98.344 24.048C100.904 24.048 102.952 22.768 103.4 19.088C103.592 17.776 103.624 14.256 103.624 12.4C103.624 8.976 103.528 8.656 101.32 8.176C100.68 8.016 100.232 7.728 100.232 7.28C100.232 7.024 100.648 6.64 101.448 6.64C102.088 6.64 102.952 6.736 104.168 6.736C105.32 6.736 106.792 6.576 107.784 6.576C108.328 6.576 108.904 6.736 108.904 7.248C108.904 7.6 108.456 7.92 107.816 8.144C106.28 8.624 106.088 8.88 105.896 10.448C105.832 10.832 105.704 13.904 105.576 16.368C105.288 21.392 104.296 23.152 102.728 24.688C101.416 25.968 99.208 26.576 97.096 26.576C94.568 26.576 91.848 25.712 90.536 23.952C88.744 21.584 88.68 18.864 88.68 15.76C88.68 12.176 88.584 11.024 88.52 9.936C88.424 8.656 88.104 8.496 86.888 8.144C86.248 7.952 85.8 7.696 85.8 7.248ZM109.033 14.416C109.033 14.192 109.289 13.68 109.737 13.488C110.345 13.264 112.009 12.848 112.649 12.528C113.033 12.336 113.609 12.176 113.673 12.176C113.769 12.176 114.217 12.432 114.217 12.688C114.217 12.848 114.121 13.68 114.121 14C114.089 14.224 114.249 14.192 114.345 14.128C115.369 13.424 116.873 12.528 118.889 12.528C120.649 12.528 121.641 13.776 121.897 14.096C122.409 14.832 122.921 16.304 122.921 18.512C122.953 20.016 122.953 21.392 123.017 22.832C123.049 24.016 123.209 24.176 123.913 24.56C124.521 24.816 124.809 25.168 124.809 25.456C124.809 25.968 124.169 26.096 123.753 26.096C123.337 26.096 121.833 26 120.873 26C119.945 26 118.857 26.096 118.473 26.096C117.833 26.096 117.449 25.872 117.449 25.488C117.449 25.296 117.577 24.976 118.121 24.784C118.857 24.496 119.049 24.144 119.081 23.344C119.113 21.776 119.113 20.496 119.113 19.088C119.113 16.688 118.857 16.048 118.537 15.632C118.217 15.216 117.577 14.96 116.745 14.96C115.913 14.96 115.177 15.12 114.665 15.408C114.569 15.44 114.313 15.76 114.313 16.144C114.313 16.464 114.313 22.512 114.313 23.248C114.313 23.824 114.377 24.24 115.273 24.592C115.977 24.88 116.105 25.232 116.105 25.424C116.105 25.84 115.625 26.096 115.049 26.096C113.993 26.096 113.001 26 112.233 26C111.241 26 109.577 26.096 109.065 26.096C108.393 26.096 108.041 25.904 108.041 25.584C108.041 25.2 108.425 24.88 108.745 24.784C110.217 24.208 110.313 24.016 110.377 23.056C110.505 21.712 110.537 19.312 110.537 16.496C110.537 15.984 110.345 15.728 109.513 15.024C109.161 14.736 109.033 14.544 109.033 14.416ZM126.846 14.32C126.846 14.096 127.198 13.776 127.326 13.744C128.926 13.168 131.23 12.432 131.774 12.432C131.934 12.432 132.158 12.976 132.158 13.392C132.158 14.576 132.158 16.624 132.158 18.96C132.19 23.152 132.254 23.28 132.286 23.568C132.35 24.08 132.574 24.4 133.47 24.72C133.918 24.848 134.366 25.168 134.366 25.552C134.366 25.84 133.95 26.096 133.278 26.096C132.606 26.096 130.974 26 130.27 26C128.638 26 127.422 26.128 126.974 26.128C126.43 26.128 125.854 25.936 125.854 25.552C125.854 25.168 126.366 24.88 126.654 24.784C128.062 24.336 128.094 24.144 128.222 22.928C128.286 22.256 128.382 19.856 128.382 18.032C128.382 17.392 128.35 16.336 128.318 16.144C128.318 16.016 128.19 15.664 127.326 15.056C127.134 14.896 126.846 14.512 126.846 14.32ZM130.238 5.904C130.814 5.904 131.23 6.128 131.518 6.416C132.062 6.992 132.222 7.792 132.222 8.08C132.222 9.808 130.75 10.384 129.982 10.384C129.342 10.384 128.606 10.032 128.19 9.392C127.966 9.072 127.838 8.72 127.838 8.24C127.838 6.896 128.766 5.904 130.238 5.904ZM141.44 12.912C141.792 12.912 144.192 12.752 144.928 12.752C145.056 12.752 145.344 12.976 145.376 13.168C145.472 13.488 145.44 14.16 145.44 14.32C145.408 14.544 145.152 15.024 144.672 15.024C143.488 15.024 142.144 15.056 141.408 15.056C141.344 15.056 141.152 15.28 141.152 15.504L141.088 20.912C141.056 22.224 141.216 22.672 141.6 23.12C142.048 23.6 142.592 23.728 143.072 23.728C143.52 23.728 144 23.664 144.448 23.536C144.736 23.44 144.96 23.312 145.152 23.312C145.28 23.312 145.504 23.568 145.504 23.824C145.504 24.272 145.344 24.656 144.384 25.392C143.52 26.064 141.888 26.384 141.088 26.384C139.968 26.384 138.496 26.064 137.664 24.784C137.408 24.4 137.216 23.664 137.216 22.512C137.216 20.272 137.344 18.576 137.344 15.536C137.344 15.28 137.28 15.12 136.416 14.96C135.904 14.832 135.552 14.192 135.552 13.968C135.552 13.744 135.904 13.488 136.224 13.296C136.992 12.752 138.368 11.76 139.072 10.96C139.488 10.48 140.448 10.16 140.672 10.16C140.864 10.16 141.12 10.544 141.12 10.768C141.12 11.12 141.12 12.304 141.12 12.496C141.12 12.624 141.216 12.912 141.44 12.912ZM153.944 12.528C155.768 12.528 157.432 13.328 158.296 14.704C158.712 15.376 158.936 16.208 158.936 17.072C158.936 17.424 158.424 18.16 158.008 18.16C157.784 18.16 152.088 18.256 151.512 18.256C151.288 18.256 151.032 18.384 150.936 18.608C150.808 18.768 150.808 19.024 150.808 19.216C150.808 21.712 152.6 23.6 155.352 23.6C156.472 23.6 157.752 22.992 158.488 22.512C158.68 22.384 158.968 22.64 158.968 22.896C158.968 23.536 158.616 24.048 158.392 24.272C157.048 25.712 155.192 26.384 153.432 26.384C149.4 26.384 146.936 23.6 146.936 19.6C146.936 16.816 148.504 14.672 150.232 13.584C151.192 12.976 152.568 12.528 153.944 12.528ZM153.432 13.904C152.44 13.904 151.224 15.152 151.096 16.4C151.064 16.528 151.096 16.816 151.256 16.848C151.576 16.88 152.248 16.912 153.24 16.912C154.296 16.912 155.416 16.848 155.416 15.76C155.416 15.056 154.936 13.904 153.432 13.904ZM169.312 12.528C170.208 12.528 170.624 12.56 171.008 12.624C171.072 12.624 171.264 12.4 171.264 12.272C171.264 12.08 171.2 9.296 171.2 8.624C171.104 7.568 171.04 7.344 169.76 6.992C169.44 6.896 169.024 6.608 169.024 6.384C169.024 6.224 169.312 5.712 169.824 5.552C170.88 5.264 174.048 4.688 174.816 4.688C175.104 4.688 175.264 5.36 175.264 6.576C175.264 8.592 175.136 12.528 175.136 15.12C175.136 21.552 175.232 21.552 175.264 22.48C175.296 23.728 175.744 24.048 176 24.048C176.32 24.048 177.152 23.952 177.504 23.888C177.632 23.856 177.856 24.208 177.856 24.496C177.856 24.944 177.408 25.488 177.056 25.552C175.04 25.904 172.544 26.576 172.064 26.576C171.904 26.576 171.52 26.416 171.488 26.256C171.424 25.904 171.456 25.328 171.392 24.976C171.392 24.912 171.2 24.816 171.136 24.88C169.888 25.68 168.288 26.384 167.232 26.384C163.872 26.384 161.248 23.696 161.248 20.016C161.248 16.56 163.2 14.896 164.768 13.872C166.112 13.008 168.192 12.528 169.312 12.528ZM168.384 14.128C167.968 14.128 167.168 14.48 166.752 14.864C165.92 15.696 165.536 16.976 165.536 18.96C165.536 21.136 166.784 24.048 169.472 24.048C169.952 24.048 170.784 23.664 170.944 23.504C171.072 23.376 171.264 22.928 171.264 22.704C171.296 20.624 171.264 18.896 171.264 16.816C171.264 16.368 171.072 15.664 170.976 15.536C170.432 14.736 169.408 14.128 168.384 14.128ZM184.79 7.024C184.79 6.768 185.046 6.512 185.558 6.512C186.838 6.512 189.366 6.736 191.062 6.736C191.318 6.736 191.766 7.024 191.83 7.12C192.31 7.792 193.366 9.008 194.902 10.672C196.598 12.496 202.006 18.384 202.87 19.024C202.966 19.088 203.19 18.992 203.222 18.864C203.382 18.064 203.446 14.096 203.318 11.792C203.19 9.424 203.286 8.72 200.918 8.208C200.15 8.016 199.894 7.536 199.894 7.344C199.894 7.12 200.246 6.704 200.982 6.704C201.91 6.704 202.166 6.736 202.998 6.736C204.31 6.736 206.486 6.544 207.126 6.544C207.798 6.544 208.214 6.8 208.214 7.248C208.214 7.536 207.99 7.76 206.966 8.176C205.718 8.688 205.43 9.072 205.398 9.584C205.334 10.928 205.078 17.552 205.078 20.016C205.078 21.424 205.206 23.088 205.206 24.56C205.206 25.904 204.95 26.64 204.406 26.64C203.67 26.64 202.902 26.128 202.358 25.456C201.302 24.176 199.734 22.32 198.838 21.328C197.622 19.92 192.246 14 190.838 12.464C190.71 12.336 190.518 12.528 190.518 12.72C190.486 13.424 190.422 14.16 190.422 15.312C190.422 16.752 190.486 19.856 190.518 20.72C190.614 23.344 190.934 23.952 192.278 24.432C193.27 24.784 193.59 25.104 193.59 25.552C193.59 25.936 193.174 26.128 192.534 26.128C191.638 26.128 190.71 26 189.43 26C187.926 26 186.742 26.16 186.326 26.16C185.526 26.16 185.142 25.872 185.142 25.52C185.142 25.136 185.494 24.88 186.07 24.688C187.734 24.176 188.182 23.856 188.342 22C188.502 19.856 188.758 11.696 188.758 10.672C188.758 10.416 188.566 9.776 187.99 9.2C187.414 8.528 186.71 8.208 186.006 8.048C185.334 7.92 184.79 7.536 184.79 7.024ZM215.337 12.528C216.649 12.528 217.833 13.008 218.889 14.096C219.497 14.704 219.913 16.272 219.913 16.784C219.913 18 219.785 18.864 219.785 22.448C219.785 23.408 220.329 23.824 220.873 23.824C221.097 23.824 221.609 23.728 221.897 23.6C221.993 23.568 222.153 23.856 222.153 24.048C222.153 24.496 221.833 25.2 221.737 25.296C220.969 26.128 220.169 26.448 219.049 26.448C218.057 26.448 216.873 26.064 216.297 24.496C216.297 24.464 216.009 24.336 215.945 24.4C215.369 24.816 214.633 25.328 213.897 25.808C213.321 26.128 212.585 26.32 212.105 26.32C211.049 26.32 208.777 25.264 208.777 22.416C208.777 21.68 209.097 21.072 209.321 20.784C209.641 20.304 210.473 19.984 210.601 19.952C213.097 19.344 214.953 18.896 215.913 18.416C216.105 18.32 216.329 17.936 216.329 17.872C216.329 17.424 216.329 16.912 216.329 16.528C216.329 16.304 216.297 16.08 216.233 15.856C215.849 14.864 214.825 14.288 213.929 14.288C213.385 14.288 212.905 14.608 212.809 14.8C212.713 15.024 212.585 15.792 212.489 16.624C212.457 16.88 212.233 17.168 212.105 17.296C211.945 17.456 211.465 17.648 211.273 17.648C210.633 17.648 209.609 17.552 209.225 17.36C209.097 17.264 208.841 16.848 208.841 16.688C208.841 15.952 210.153 14.832 211.497 13.936C212.681 13.168 214.249 12.528 215.337 12.528ZM214.089 23.728C214.601 23.728 215.337 23.504 215.881 22.992C215.977 22.832 216.105 22.544 216.105 22.064L216.201 20.144C216.201 20.016 216.041 19.92 215.945 19.92C215.177 20.08 213.961 20.4 213.321 20.624C212.553 20.88 212.329 21.392 212.329 22.032C212.329 23.024 213.225 23.728 214.089 23.728ZM228.69 12.912C229.042 12.912 231.442 12.752 232.178 12.752C232.306 12.752 232.594 12.976 232.626 13.168C232.722 13.488 232.69 14.16 232.69 14.32C232.658 14.544 232.402 15.024 231.922 15.024C230.738 15.024 229.394 15.056 228.658 15.056C228.594 15.056 228.402 15.28 228.402 15.504L228.338 20.912C228.306 22.224 228.466 22.672 228.85 23.12C229.298 23.6 229.842 23.728 230.322 23.728C230.77 23.728 231.25 23.664 231.698 23.536C231.986 23.44 232.21 23.312 232.402 23.312C232.53 23.312 232.754 23.568 232.754 23.824C232.754 24.272 232.594 24.656 231.634 25.392C230.77 26.064 229.138 26.384 228.338 26.384C227.218 26.384 225.746 26.064 224.914 24.784C224.658 24.4 224.466 23.664 224.466 22.512C224.466 20.272 224.594 18.576 224.594 15.536C224.594 15.28 224.53 15.12 223.666 14.96C223.154 14.832 222.802 14.192 222.802 13.968C222.802 13.744 223.154 13.488 223.474 13.296C224.242 12.752 225.618 11.76 226.322 10.96C226.738 10.48 227.698 10.16 227.922 10.16C228.114 10.16 228.37 10.544 228.37 10.768C228.37 11.12 228.37 12.304 228.37 12.496C228.37 12.624 228.466 12.912 228.69 12.912ZM234.783 14.32C234.783 14.096 235.135 13.776 235.263 13.744C236.863 13.168 239.167 12.432 239.711 12.432C239.871 12.432 240.095 12.976 240.095 13.392C240.095 14.576 240.095 16.624 240.095 18.96C240.127 23.152 240.191 23.28 240.223 23.568C240.287 24.08 240.511 24.4 241.407 24.72C241.855 24.848 242.303 25.168 242.303 25.552C242.303 25.84 241.887 26.096 241.215 26.096C240.543 26.096 238.911 26 238.207 26C236.575 26 235.359 26.128 234.911 26.128C234.367 26.128 233.791 25.936 233.791 25.552C233.791 25.168 234.303 24.88 234.591 24.784C235.999 24.336 236.031 24.144 236.159 22.928C236.223 22.256 236.319 19.856 236.319 18.032C236.319 17.392 236.287 16.336 236.255 16.144C236.255 16.016 236.127 15.664 235.263 15.056C235.071 14.896 234.783 14.512 234.783 14.32ZM238.175 5.904C238.751 5.904 239.167 6.128 239.455 6.416C239.999 6.992 240.159 7.792 240.159 8.08C240.159 9.808 238.687 10.384 237.919 10.384C237.279 10.384 236.543 10.032 236.127 9.392C235.903 9.072 235.775 8.72 235.775 8.24C235.775 6.896 236.703 5.904 238.175 5.904ZM251.391 12.528C256.031 12.528 258.655 16.08 258.655 19.248C258.655 21.84 257.599 23.44 256.511 24.432C255.359 25.488 253.599 26.384 251.263 26.384C249.119 26.384 247.199 25.648 245.855 24.304C244.479 22.96 243.967 20.912 243.967 19.472C243.967 17.072 245.151 15.312 246.559 14.192C247.775 13.2 250.015 12.528 251.391 12.528ZM250.911 14.096C250.303 14.096 249.599 14.448 249.279 14.864C248.799 15.504 248.223 17.072 248.223 18.896C248.223 21.648 249.183 23.504 249.887 24.08C250.143 24.304 250.911 24.848 251.711 24.848C252.191 24.848 252.959 24.496 253.439 23.856C253.791 23.376 254.239 22.064 254.239 19.76C254.239 16.688 252.959 14.096 250.911 14.096ZM261.314 14.416C261.314 14.192 261.57 13.68 262.018 13.488C262.626 13.264 264.29 12.848 264.93 12.528C265.314 12.336 265.89 12.176 265.954 12.176C266.05 12.176 266.498 12.432 266.498 12.688C266.498 12.848 266.402 13.68 266.402 14C266.37 14.224 266.53 14.192 266.626 14.128C267.65 13.424 269.154 12.528 271.17 12.528C272.93 12.528 273.922 13.776 274.178 14.096C274.69 14.832 275.202 16.304 275.202 18.512C275.234 20.016 275.234 21.392 275.298 22.832C275.33 24.016 275.49 24.176 276.194 24.56C276.802 24.816 277.09 25.168 277.09 25.456C277.09 25.968 276.45 26.096 276.034 26.096C275.618 26.096 274.114 26 273.154 26C272.226 26 271.138 26.096 270.754 26.096C270.114 26.096 269.73 25.872 269.73 25.488C269.73 25.296 269.858 24.976 270.402 24.784C271.138 24.496 271.33 24.144 271.362 23.344C271.394 21.776 271.394 20.496 271.394 19.088C271.394 16.688 271.138 16.048 270.818 15.632C270.498 15.216 269.858 14.96 269.026 14.96C268.194 14.96 267.458 15.12 266.946 15.408C266.85 15.44 266.594 15.76 266.594 16.144C266.594 16.464 266.594 22.512 266.594 23.248C266.594 23.824 266.658 24.24 267.554 24.592C268.258 24.88 268.386 25.232 268.386 25.424C268.386 25.84 267.906 26.096 267.33 26.096C266.274 26.096 265.282 26 264.514 26C263.522 26 261.858 26.096 261.346 26.096C260.674 26.096 260.322 25.904 260.322 25.584C260.322 25.2 260.706 24.88 261.026 24.784C262.498 24.208 262.594 24.016 262.658 23.056C262.786 21.712 262.818 19.312 262.818 16.496C262.818 15.984 262.626 15.728 261.794 15.024C261.442 14.736 261.314 14.544 261.314 14.416ZM284.184 12.528C284.984 12.528 285.784 12.592 286.296 12.752C286.712 12.88 287.192 12.976 287.512 13.072C287.704 13.136 288.088 13.648 288.12 13.776C288.12 14.16 288.184 15.024 288.184 15.664C288.184 16.112 287.864 16.624 287.576 16.624C287.384 16.624 286.968 16.496 286.52 15.76C285.752 14.576 284.824 13.936 284.056 13.936C283.352 13.936 282.616 14.512 282.616 15.44C282.616 16.464 283.32 16.944 285.56 18.096C287.736 19.184 288.792 20.4 288.792 22.096C288.792 24.048 287.416 25.232 286.104 25.776C285.08 26.224 283.896 26.384 283 26.384C280.888 26.384 279.896 25.936 279.48 25.584C279.16 25.264 278.776 23.344 278.776 22.768C278.776 22.096 279.128 21.872 279.448 21.872C279.672 21.872 280.024 22.096 280.472 22.672C281.496 24.144 282.68 24.88 283.64 24.88C284.76 24.88 285.144 24.08 285.144 23.44C285.144 22.928 284.664 22.288 283.992 21.84C283.224 21.36 282.648 21.072 281.784 20.528C280.6 19.824 279.224 18.64 279.224 16.752C279.224 14.96 280.312 13.904 281.208 13.328C281.976 12.848 283.448 12.528 284.184 12.528Z" fill="#000000"/>
<path d="M92.488 38.736H95.784C98.696 38.736 99.304 38.704 100.04 38.576C100.392 38.544 100.616 38.672 100.744 38.864C100.936 39.184 101.192 41.552 101.192 42.256C101.192 42.928 100.872 43.216 100.648 43.216C100.136 43.216 99.816 42.832 99.336 41.808C98.76 40.624 98.28 40.432 98.088 40.432C96.264 40.432 94.248 40.528 93.8 40.528C93.672 40.528 93.416 40.88 93.416 41.04C93.352 41.744 93.288 44.24 93.288 46.448C93.288 46.864 93.416 47.28 93.608 47.312C93.928 47.376 95.112 47.376 95.656 47.344C97.32 47.248 97.768 46.768 98.12 45.936C98.312 45.392 98.6 45.04 98.92 45.04C99.368 45.04 99.624 45.488 99.56 46.384C99.528 46.768 99.496 47.472 99.496 48.144C99.496 48.88 99.528 49.68 99.56 50.16C99.624 51.024 99.176 51.344 98.888 51.344C98.632 51.344 98.248 51.056 97.992 50.416C97.672 49.616 97.512 49.36 96.84 49.296C95.528 49.2 95.112 49.168 93.672 49.168C93.512 49.168 93.288 49.648 93.288 50.256C93.288 51.824 93.384 53.424 93.416 54.128C93.48 55.056 93.64 55.504 93.736 55.6C94.056 56.016 95.368 56.432 97.224 56.432C97.992 56.432 98.728 56.336 99.464 55.984C100.136 55.696 100.552 55.248 101.224 54.256C101.768 53.488 102.056 52.848 102.536 52.848C103.112 52.848 103.24 53.744 103.112 54.384C102.92 55.312 102.152 57.264 102.024 57.552C101.928 57.872 101.224 58.16 101.064 58.16C100.36 58.16 99.176 58 93.352 58C91.336 58 87.944 58.128 86.568 58.128C85.864 58.128 85.416 57.936 85.416 57.68C85.416 57.296 85.704 56.88 86.376 56.688C88.552 56.144 88.712 55.536 88.776 54.768C88.872 53.456 88.904 52.624 88.904 47.888C88.904 44.752 88.84 42.16 88.776 41.584C88.616 40.624 88.136 40.272 86.856 39.952C86.12 39.792 85.928 39.408 85.928 39.184C85.928 38.768 86.504 38.576 86.92 38.576C87.464 38.576 90.376 38.736 92.488 38.736ZM112.866 44.528C115.074 44.528 116.258 45.2 116.514 45.488C116.738 45.712 116.93 46.288 116.93 46.512C116.93 47.632 116.258 48.496 115.586 48.496C115.362 48.496 114.85 48.176 114.37 47.696C113.506 46.864 112.514 46.224 111.458 46.224C110.658 46.224 110.05 46.704 109.73 47.024C109.25 47.536 108.802 48.56 108.802 50.32C108.802 53.584 110.978 55.472 113.282 55.472C114.402 55.472 115.554 55.024 116.482 54.256C116.61 54.16 117.058 54.288 117.058 54.704C117.058 55.152 116.738 55.728 116.418 56.208C115.394 57.584 113.506 58.384 111.554 58.384C109.858 58.384 108.386 57.872 107.106 56.752C106.274 56.048 105.122 54.192 105.122 51.952C105.122 48.816 106.786 46.896 108.514 45.84C110.146 44.848 111.778 44.528 112.866 44.528ZM126.547 44.528C131.187 44.528 133.811 48.08 133.811 51.248C133.811 53.84 132.755 55.44 131.667 56.432C130.515 57.488 128.755 58.384 126.419 58.384C124.275 58.384 122.355 57.648 121.011 56.304C119.635 54.96 119.123 52.912 119.123 51.472C119.123 49.072 120.307 47.312 121.715 46.192C122.931 45.2 125.171 44.528 126.547 44.528ZM126.067 46.096C125.459 46.096 124.755 46.448 124.435 46.864C123.955 47.504 123.379 49.072 123.379 50.896C123.379 53.648 124.339 55.504 125.043 56.08C125.299 56.304 126.067 56.848 126.867 56.848C127.347 56.848 128.115 56.496 128.595 55.856C128.947 55.376 129.395 54.064 129.395 51.76C129.395 48.688 128.115 46.096 126.067 46.096ZM136.471 46.416C136.471 46.192 136.727 45.68 137.174 45.488C137.783 45.264 139.447 44.848 140.087 44.528C140.471 44.336 141.047 44.176 141.111 44.176C141.207 44.176 141.655 44.432 141.655 44.688C141.655 44.848 141.559 45.68 141.559 46C141.527 46.224 141.687 46.192 141.783 46.128C142.807 45.424 144.311 44.528 146.327 44.528C148.087 44.528 149.079 45.776 149.335 46.096C149.847 46.832 150.359 48.304 150.359 50.512C150.391 52.016 150.391 53.392 150.455 54.832C150.487 56.016 150.647 56.176 151.351 56.56C151.958 56.816 152.247 57.168 152.247 57.456C152.247 57.968 151.607 58.096 151.191 58.096C150.775 58.096 149.271 58 148.311 58C147.383 58 146.295 58.096 145.911 58.096C145.271 58.096 144.887 57.872 144.887 57.488C144.887 57.296 145.015 56.976 145.559 56.784C146.295 56.496 146.487 56.144 146.519 55.344C146.551 53.776 146.551 52.496 146.551 51.088C146.551 48.688 146.295 48.048 145.975 47.632C145.655 47.216 145.015 46.96 144.183 46.96C143.351 46.96 142.615 47.12 142.103 47.408C142.007 47.44 141.751 47.76 141.751 48.144C141.751 48.464 141.751 54.512 141.751 55.248C141.751 55.824 141.815 56.24 142.711 56.592C143.415 56.88 143.543 57.232 143.543 57.424C143.543 57.84 143.062 58.096 142.487 58.096C141.431 58.096 140.439 58 139.671 58C138.679 58 137.015 58.096 136.503 58.096C135.831 58.096 135.479 57.904 135.479 57.584C135.479 57.2 135.863 56.88 136.183 56.784C137.655 56.208 137.751 56.016 137.815 55.056C137.943 53.712 137.975 51.312 137.975 48.496C137.975 47.984 137.783 47.728 136.951 47.024C136.599 46.736 136.471 46.544 136.471 46.416ZM161.422 44.528C166.062 44.528 168.686 48.08 168.686 51.248C168.686 53.84 167.63 55.44 166.542 56.432C165.39 57.488 163.63 58.384 161.294 58.384C159.15 58.384 157.23 57.648 155.886 56.304C154.51 54.96 153.998 52.912 153.998 51.472C153.998 49.072 155.182 47.312 156.59 46.192C157.806 45.2 160.046 44.528 161.422 44.528ZM160.942 46.096C160.334 46.096 159.63 46.448 159.31 46.864C158.83 47.504 158.254 49.072 158.254 50.896C158.254 53.648 159.214 55.504 159.918 56.08C160.174 56.304 160.942 56.848 161.742 56.848C162.222 56.848 162.99 56.496 163.47 55.856C163.822 55.376 164.27 54.064 164.27 51.76C164.27 48.688 162.99 46.096 160.942 46.096ZM171.538 46.832C171.538 46.416 171.826 46.064 172.082 45.936C172.786 45.648 174.546 45.104 175.602 44.432C175.826 44.272 175.922 44.24 176.018 44.24C176.338 44.24 176.626 44.56 176.626 44.624C176.626 45.168 176.626 45.328 176.626 45.872C176.626 46.096 176.786 46.16 176.946 46.032C177.618 45.552 179.282 44.528 181.074 44.528C182.994 44.528 184.05 45.52 184.53 46.256C184.594 46.352 184.818 46.416 184.978 46.352C185.778 45.808 186.418 45.328 187.154 45.008C187.858 44.688 188.466 44.528 189.33 44.528C192.274 44.528 193.49 46.864 193.65 49.488C193.778 51.536 193.874 54.704 193.874 55.504C193.874 56.048 194.354 56.464 194.898 56.656C195.314 56.816 195.762 57.04 195.762 57.424C195.762 57.808 195.186 58.064 194.77 58.064C194.066 58.064 192.722 58 191.986 58C191.25 58 190.034 58.064 189.298 58.064C188.594 58.064 188.274 57.68 188.274 57.424C188.274 57.296 188.466 56.912 189.074 56.656C189.778 56.368 189.97 56.048 189.97 55.184C189.97 53.648 189.938 51.344 189.938 50.16C189.938 48.912 189.81 48.272 189.394 47.792C189.01 47.408 188.434 47.056 187.378 47.056C186.706 47.056 185.682 47.376 185.426 47.568C185.298 47.664 185.17 47.952 185.17 48.304C185.17 51.056 185.234 54.448 185.298 55.184C185.33 55.92 185.618 56.4 186.162 56.592C186.802 56.816 187.09 57.04 187.09 57.392C187.09 57.776 186.61 58.064 186.162 58.064C185.33 58.064 183.858 58 183.026 58C182.322 58 181.394 58.064 180.69 58.064C180.05 58.064 179.538 57.712 179.538 57.392C179.538 57.072 179.986 56.816 180.498 56.656C181.266 56.4 181.394 56.304 181.426 54.896L181.554 49.232C181.586 48.432 181.266 47.984 181.106 47.76C180.658 47.184 179.89 46.896 178.898 46.896C178.194 46.896 177.554 47.088 177.074 47.44C176.978 47.504 176.722 48.016 176.722 48.208C176.722 53.84 176.722 54.384 176.786 55.216C176.85 56.112 177.01 56.304 177.618 56.624C178.226 56.944 178.482 57.104 178.482 57.456C178.482 57.776 178.098 58.096 177.618 58.096C176.85 58.096 175.346 58 174.386 58C173.65 58 172.434 58.128 171.698 58.128C171.026 58.128 170.642 57.808 170.642 57.52C170.642 57.232 170.962 56.944 171.538 56.72C172.562 56.336 172.754 55.984 172.786 54.96C172.85 53.776 172.882 51.504 172.882 48.56C172.882 48.208 172.882 48.048 172.37 47.664C171.73 47.152 171.538 46.928 171.538 46.832ZM197.689 46.32C197.689 46.096 198.041 45.776 198.169 45.744C199.769 45.168 202.073 44.432 202.617 44.432C202.777 44.432 203.001 44.976 203.001 45.392C203.001 46.576 203.001 48.624 203.001 50.96C203.033 55.152 203.097 55.28 203.129 55.568C203.193 56.08 203.417 56.4 204.313 56.72C204.761 56.848 205.209 57.168 205.209 57.552C205.209 57.84 204.793 58.096 204.121 58.096C203.449 58.096 201.817 58 201.113 58C199.481 58 198.265 58.128 197.817 58.128C197.273 58.128 196.697 57.936 196.697 57.552C196.697 57.168 197.209 56.88 197.497 56.784C198.905 56.336 198.937 56.144 199.065 54.928C199.129 54.256 199.225 51.856 199.225 50.032C199.225 49.392 199.193 48.336 199.161 48.144C199.161 48.016 199.033 47.664 198.169 47.056C197.977 46.896 197.689 46.512 197.689 46.32ZM201.081 37.904C201.657 37.904 202.073 38.128 202.361 38.416C202.905 38.992 203.065 39.792 203.065 40.08C203.065 41.808 201.593 42.384 200.825 42.384C200.185 42.384 199.449 42.032 199.033 41.392C198.809 41.072 198.681 40.72 198.681 40.24C198.681 38.896 199.609 37.904 201.081 37.904ZM214.585 44.528C216.793 44.528 217.977 45.2 218.233 45.488C218.457 45.712 218.649 46.288 218.649 46.512C218.649 47.632 217.977 48.496 217.305 48.496C217.081 48.496 216.569 48.176 216.089 47.696C215.225 46.864 214.233 46.224 213.177 46.224C212.377 46.224 211.769 46.704 211.449 47.024C210.969 47.536 210.521 48.56 210.521 50.32C210.521 53.584 212.697 55.472 215.001 55.472C216.121 55.472 217.273 55.024 218.201 54.256C218.329 54.16 218.777 54.288 218.777 54.704C218.777 55.152 218.457 55.728 218.137 56.208C217.113 57.584 215.225 58.384 213.273 58.384C211.577 58.384 210.105 57.872 208.825 56.752C207.993 56.048 206.841 54.192 206.841 51.952C206.841 48.816 208.505 46.896 210.233 45.84C211.865 44.848 213.497 44.528 214.585 44.528ZM239.947 38.096C241.419 38.096 242.859 38.416 243.787 38.672C244.587 38.896 245.675 39.248 245.931 39.248C246.123 39.248 246.475 39.632 246.475 39.824C246.475 40.784 246.731 42.512 246.731 43.312C246.731 44.208 246.219 44.688 245.803 44.688C245.515 44.688 245.355 44.336 245.131 43.728C244.715 42.416 244.395 41.584 243.179 40.784C242.187 40.112 240.971 39.632 239.595 39.632C238.155 39.632 236.299 40.4 235.211 41.648C233.707 43.28 232.971 45.808 232.971 47.856C232.971 50.16 233.803 52.56 234.731 53.84C236.043 55.6 238.315 56.784 240.299 56.784C241.131 56.784 242.603 56.304 243.339 55.92C243.627 55.76 244.299 55.056 245.035 53.872C245.611 52.88 245.931 52.496 246.251 52.496C246.795 52.496 246.891 53.04 246.891 53.712C246.891 54 246.283 56.112 246.251 56.72C246.219 56.848 245.899 57.296 245.803 57.36C244.715 57.872 241.835 58.576 239.723 58.576C236.171 58.576 232.587 57.52 230.411 55.088C229.003 53.552 227.947 51.344 227.947 48.496C227.947 45.008 229.515 42.096 232.331 40.144C233.771 39.152 236.555 38.096 239.947 38.096ZM256.922 44.528C261.562 44.528 264.186 48.08 264.186 51.248C264.186 53.84 263.13 55.44 262.042 56.432C260.89 57.488 259.13 58.384 256.794 58.384C254.65 58.384 252.73 57.648 251.386 56.304C250.01 54.96 249.498 52.912 249.498 51.472C249.498 49.072 250.682 47.312 252.09 46.192C253.306 45.2 255.546 44.528 256.922 44.528ZM256.442 46.096C255.834 46.096 255.13 46.448 254.81 46.864C254.33 47.504 253.754 49.072 253.754 50.896C253.754 53.648 254.714 55.504 255.418 56.08C255.674 56.304 256.442 56.848 257.242 56.848C257.722 56.848 258.49 56.496 258.97 55.856C259.322 55.376 259.77 54.064 259.77 51.76C259.77 48.688 258.49 46.096 256.442 46.096ZM267.038 46.832C267.038 46.416 267.326 46.064 267.582 45.936C268.286 45.648 270.046 45.104 271.102 44.432C271.326 44.272 271.422 44.24 271.518 44.24C271.838 44.24 272.126 44.56 272.126 44.624C272.126 45.168 272.126 45.328 272.126 45.872C272.126 46.096 272.286 46.16 272.446 46.032C273.118 45.552 274.782 44.528 276.574 44.528C278.494 44.528 279.55 45.52 280.03 46.256C280.094 46.352 280.318 46.416 280.478 46.352C281.278 45.808 281.918 45.328 282.654 45.008C283.358 44.688 283.966 44.528 284.83 44.528C287.774 44.528 288.99 46.864 289.15 49.488C289.278 51.536 289.374 54.704 289.374 55.504C289.374 56.048 289.854 56.464 290.398 56.656C290.814 56.816 291.262 57.04 291.262 57.424C291.262 57.808 290.686 58.064 290.27 58.064C289.566 58.064 288.222 58 287.486 58C286.75 58 285.534 58.064 284.798 58.064C284.094 58.064 283.774 57.68 283.774 57.424C283.774 57.296 283.966 56.912 284.574 56.656C285.278 56.368 285.47 56.048 285.47 55.184C285.47 53.648 285.438 51.344 285.438 50.16C285.438 48.912 285.31 48.272 284.894 47.792C284.51 47.408 283.934 47.056 282.878 47.056C282.206 47.056 281.182 47.376 280.926 47.568C280.798 47.664 280.67 47.952 280.67 48.304C280.67 51.056 280.734 54.448 280.798 55.184C280.83 55.92 281.118 56.4 281.662 56.592C282.302 56.816 282.59 57.04 282.59 57.392C282.59 57.776 282.11 58.064 281.662 58.064C280.83 58.064 279.358 58 278.526 58C277.822 58 276.894 58.064 276.19 58.064C275.55 58.064 275.038 57.712 275.038 57.392C275.038 57.072 275.486 56.816 275.998 56.656C276.766 56.4 276.894 56.304 276.926 54.896L277.054 49.232C277.086 48.432 276.766 47.984 276.606 47.76C276.158 47.184 275.39 46.896 274.398 46.896C273.694 46.896 273.054 47.088 272.574 47.44C272.478 47.504 272.222 48.016 272.222 48.208C272.222 53.84 272.222 54.384 272.286 55.216C272.35 56.112 272.51 56.304 273.118 56.624C273.726 56.944 273.982 57.104 273.982 57.456C273.982 57.776 273.598 58.096 273.118 58.096C272.35 58.096 270.846 58 269.886 58C269.15 58 267.934 58.128 267.198 58.128C266.526 58.128 266.142 57.808 266.142 57.52C266.142 57.232 266.462 56.944 267.038 56.72C268.062 56.336 268.254 55.984 268.286 54.96C268.35 53.776 268.382 51.504 268.382 48.56C268.382 48.208 268.382 48.048 267.87 47.664C267.23 47.152 267.038 46.928 267.038 46.832ZM293.538 46.832C293.538 46.416 293.826 46.064 294.082 45.936C294.786 45.648 296.546 45.104 297.602 44.432C297.826 44.272 297.922 44.24 298.018 44.24C298.338 44.24 298.626 44.56 298.626 44.624C298.626 45.168 298.626 45.328 298.626 45.872C298.626 46.096 298.786 46.16 298.946 46.032C299.618 45.552 301.282 44.528 303.074 44.528C304.994 44.528 306.05 45.52 306.53 46.256C306.594 46.352 306.818 46.416 306.978 46.352C307.778 45.808 308.418 45.328 309.154 45.008C309.858 44.688 310.466 44.528 311.33 44.528C314.274 44.528 315.49 46.864 315.65 49.488C315.778 51.536 315.874 54.704 315.874 55.504C315.874 56.048 316.354 56.464 316.898 56.656C317.314 56.816 317.762 57.04 317.762 57.424C317.762 57.808 317.186 58.064 316.77 58.064C316.066 58.064 314.722 58 313.986 58C313.25 58 312.034 58.064 311.298 58.064C310.594 58.064 310.274 57.68 310.274 57.424C310.274 57.296 310.466 56.912 311.074 56.656C311.778 56.368 311.97 56.048 311.97 55.184C311.97 53.648 311.938 51.344 311.938 50.16C311.938 48.912 311.81 48.272 311.394 47.792C311.01 47.408 310.434 47.056 309.378 47.056C308.706 47.056 307.682 47.376 307.426 47.568C307.298 47.664 307.17 47.952 307.17 48.304C307.17 51.056 307.234 54.448 307.298 55.184C307.33 55.92 307.618 56.4 308.162 56.592C308.802 56.816 309.09 57.04 309.09 57.392C309.09 57.776 308.61 58.064 308.162 58.064C307.33 58.064 305.858 58 305.026 58C304.322 58 303.394 58.064 302.69 58.064C302.05 58.064 301.538 57.712 301.538 57.392C301.538 57.072 301.986 56.816 302.498 56.656C303.266 56.4 303.394 56.304 303.426 54.896L303.554 49.232C303.586 48.432 303.266 47.984 303.106 47.76C302.658 47.184 301.89 46.896 300.898 46.896C300.194 46.896 299.554 47.088 299.074 47.44C298.978 47.504 298.722 48.016 298.722 48.208C298.722 53.84 298.722 54.384 298.786 55.216C298.85 56.112 299.01 56.304 299.618 56.624C300.226 56.944 300.482 57.104 300.482 57.456C300.482 57.776 300.098 58.096 299.618 58.096C298.85 58.096 297.346 58 296.386 58C295.65 58 294.434 58.128 293.698 58.128C293.026 58.128 292.642 57.808 292.642 57.52C292.642 57.232 292.962 56.944 293.538 56.72C294.562 56.336 294.754 55.984 294.786 54.96C294.85 53.776 294.882 51.504 294.882 48.56C294.882 48.208 294.882 48.048 294.37 47.664C293.73 47.152 293.538 46.928 293.538 46.832ZM319.689 46.32C319.689 46.096 320.041 45.776 320.169 45.744C321.769 45.168 324.073 44.432 324.617 44.432C324.777 44.432 325.001 44.976 325.001 45.392C325.001 46.576 325.001 48.624 325.001 50.96C325.033 55.152 325.097 55.28 325.129 55.568C325.193 56.08 325.417 56.4 326.313 56.72C326.761 56.848 327.209 57.168 327.209 57.552C327.209 57.84 326.793 58.096 326.121 58.096C325.449 58.096 323.817 58 323.113 58C321.481 58 320.265 58.128 319.817 58.128C319.273 58.128 318.697 57.936 318.697 57.552C318.697 57.168 319.209 56.88 319.497 56.784C320.905 56.336 320.937 56.144 321.065 54.928C321.129 54.256 321.225 51.856 321.225 50.032C321.225 49.392 321.193 48.336 321.161 48.144C321.161 48.016 321.033 47.664 320.169 47.056C319.977 46.896 319.689 46.512 319.689 46.32ZM323.081 37.904C323.657 37.904 324.073 38.128 324.361 38.416C324.905 38.992 325.065 39.792 325.065 40.08C325.065 41.808 323.593 42.384 322.825 42.384C322.185 42.384 321.449 42.032 321.033 41.392C320.809 41.072 320.681 40.72 320.681 40.24C320.681 38.896 321.609 37.904 323.081 37.904ZM334.246 44.528C335.046 44.528 335.846 44.592 336.358 44.752C336.774 44.88 337.254 44.976 337.574 45.072C337.766 45.136 338.15 45.648 338.182 45.776C338.182 46.16 338.246 47.024 338.246 47.664C338.246 48.112 337.926 48.624 337.638 48.624C337.446 48.624 337.03 48.496 336.582 47.76C335.814 46.576 334.886 45.936 334.118 45.936C333.414 45.936 332.678 46.512 332.678 47.44C332.678 48.464 333.382 48.944 335.622 50.096C337.798 51.184 338.854 52.4 338.854 54.096C338.854 56.048 337.478 57.232 336.166 57.776C335.142 58.224 333.958 58.384 333.062 58.384C330.95 58.384 329.958 57.936 329.542 57.584C329.222 57.264 328.838 55.344 328.838 54.768C328.838 54.096 329.19 53.872 329.51 53.872C329.734 53.872 330.086 54.096 330.534 54.672C331.558 56.144 332.742 56.88 333.702 56.88C334.822 56.88 335.206 56.08 335.206 55.44C335.206 54.928 334.726 54.288 334.054 53.84C333.286 53.36 332.71 53.072 331.846 52.528C330.662 51.824 329.286 50.64 329.286 48.752C329.286 46.96 330.374 45.904 331.27 45.328C332.038 44.848 333.51 44.528 334.246 44.528ZM346.34 44.528C347.14 44.528 347.94 44.592 348.452 44.752C348.868 44.88 349.348 44.976 349.668 45.072C349.86 45.136 350.244 45.648 350.276 45.776C350.276 46.16 350.34 47.024 350.34 47.664C350.34 48.112 350.02 48.624 349.732 48.624C349.54 48.624 349.124 48.496 348.676 47.76C347.908 46.576 346.98 45.936 346.212 45.936C345.508 45.936 344.772 46.512 344.772 47.44C344.772 48.464 345.476 48.944 347.716 50.096C349.892 51.184 350.948 52.4 350.948 54.096C350.948 56.048 349.572 57.232 348.26 57.776C347.236 58.224 346.052 58.384 345.156 58.384C343.044 58.384 342.052 57.936 341.636 57.584C341.316 57.264 340.932 55.344 340.932 54.768C340.932 54.096 341.284 53.872 341.604 53.872C341.828 53.872 342.18 54.096 342.628 54.672C343.652 56.144 344.836 56.88 345.796 56.88C346.916 56.88 347.3 56.08 347.3 55.44C347.3 54.928 346.82 54.288 346.148 53.84C345.38 53.36 344.804 53.072 343.94 52.528C342.756 51.824 341.38 50.64 341.38 48.752C341.38 46.96 342.468 45.904 343.364 45.328C344.132 44.848 345.604 44.528 346.34 44.528ZM353.564 46.32C353.564 46.096 353.916 45.776 354.044 45.744C355.644 45.168 357.948 44.432 358.492 44.432C358.652 44.432 358.876 44.976 358.876 45.392C358.876 46.576 358.876 48.624 358.876 50.96C358.908 55.152 358.972 55.28 359.004 55.568C359.068 56.08 359.292 56.4 360.188 56.72C360.636 56.848 361.084 57.168 361.084 57.552C361.084 57.84 360.668 58.096 359.996 58.096C359.324 58.096 357.692 58 356.988 58C355.356 58 354.14 58.128 353.692 58.128C353.148 58.128 352.572 57.936 352.572 57.552C352.572 57.168 353.084 56.88 353.372 56.784C354.78 56.336 354.812 56.144 354.94 54.928C355.004 54.256 355.1 51.856 355.1 50.032C355.1 49.392 355.068 48.336 355.036 48.144C355.036 48.016 354.908 47.664 354.044 47.056C353.852 46.896 353.564 46.512 353.564 46.32ZM356.956 37.904C357.532 37.904 357.948 38.128 358.236 38.416C358.78 38.992 358.94 39.792 358.94 40.08C358.94 41.808 357.468 42.384 356.7 42.384C356.06 42.384 355.324 42.032 354.908 41.392C354.684 41.072 354.556 40.72 354.556 40.24C354.556 38.896 355.484 37.904 356.956 37.904ZM370.172 44.528C374.812 44.528 377.436 48.08 377.436 51.248C377.436 53.84 376.38 55.44 375.292 56.432C374.14 57.488 372.38 58.384 370.044 58.384C367.9 58.384 365.98 57.648 364.636 56.304C363.26 54.96 362.748 52.912 362.748 51.472C362.748 49.072 363.932 47.312 365.34 46.192C366.556 45.2 368.796 44.528 370.172 44.528ZM369.692 46.096C369.084 46.096 368.38 46.448 368.06 46.864C367.58 47.504 367.004 49.072 367.004 50.896C367.004 53.648 367.964 55.504 368.668 56.08C368.924 56.304 369.692 56.848 370.492 56.848C370.972 56.848 371.74 56.496 372.22 55.856C372.572 55.376 373.02 54.064 373.02 51.76C373.02 48.688 371.74 46.096 369.692 46.096ZM380.096 46.416C380.096 46.192 380.352 45.68 380.799 45.488C381.408 45.264 383.072 44.848 383.712 44.528C384.096 44.336 384.672 44.176 384.736 44.176C384.832 44.176 385.28 44.432 385.28 44.688C385.28 44.848 385.184 45.68 385.184 46C385.152 46.224 385.312 46.192 385.408 46.128C386.432 45.424 387.936 44.528 389.952 44.528C391.712 44.528 392.704 45.776 392.96 46.096C393.472 46.832 393.984 48.304 393.984 50.512C394.016 52.016 394.016 53.392 394.08 54.832C394.112 56.016 394.272 56.176 394.976 56.56C395.583 56.816 395.872 57.168 395.872 57.456C395.872 57.968 395.232 58.096 394.816 58.096C394.4 58.096 392.896 58 391.936 58C391.008 58 389.92 58.096 389.536 58.096C388.896 58.096 388.512 57.872 388.512 57.488C388.512 57.296 388.64 56.976 389.184 56.784C389.92 56.496 390.112 56.144 390.144 55.344C390.176 53.776 390.176 52.496 390.176 51.088C390.176 48.688 389.92 48.048 389.6 47.632C389.28 47.216 388.64 46.96 387.808 46.96C386.976 46.96 386.24 47.12 385.728 47.408C385.632 47.44 385.376 47.76 385.376 48.144C385.376 48.464 385.376 54.512 385.376 55.248C385.376 55.824 385.44 56.24 386.336 56.592C387.04 56.88 387.168 57.232 387.168 57.424C387.168 57.84 386.688 58.096 386.112 58.096C385.056 58.096 384.064 58 383.296 58C382.304 58 380.64 58.096 380.128 58.096C379.456 58.096 379.104 57.904 379.104 57.584C379.104 57.2 379.488 56.88 379.808 56.784C381.28 56.208 381.376 56.016 381.44 55.056C381.568 53.712 381.6 51.312 381.6 48.496C381.6 47.984 381.408 47.728 380.576 47.024C380.224 46.736 380.096 46.544 380.096 46.416ZM406.033 47.216L404.785 46.96C404.593 46.928 404.209 46.672 404.209 46.416C404.209 45.936 404.689 45.648 405.937 44.912C406.001 44.88 406.257 44.528 406.257 44.464C406.289 43.344 406.609 41.84 407.409 40.528C408.081 39.376 408.945 38.608 409.777 38C410.865 37.168 412.529 36.528 413.681 36.528C415.057 36.528 416.081 36.88 416.657 37.488C416.721 37.584 417.009 38 417.009 38.448C417.009 38.576 416.881 38.992 416.785 39.184C416.433 39.792 415.697 40.336 415.217 40.336C415.089 40.336 414.513 40.112 414.257 39.888C413.777 39.472 412.881 38.448 411.985 38.448C410.833 38.448 410.513 39.824 410.385 40.432C410.225 41.232 410.193 42.896 410.193 44.208C410.193 44.72 410.353 44.912 410.513 44.912C411.537 44.912 413.553 44.848 413.777 44.848C414.065 44.848 414.225 45.52 414.225 46.512C414.225 46.704 413.809 47.12 413.649 47.12C413.553 47.12 410.705 47.056 410.385 47.056C410.225 47.056 410.097 47.216 410.097 48.08C410.097 50.8 410.161 52.176 410.225 54.704C410.257 56.208 410.705 56.304 412.113 56.592C412.657 56.688 413.073 57.008 413.073 57.424C413.073 57.776 412.657 58.096 411.953 58.096C411.537 58.096 409.841 58 408.049 58C407.185 58 405.809 58.096 405.169 58.096C404.337 58.096 404.017 57.712 404.017 57.296C404.017 57.104 404.337 56.912 404.913 56.656C405.777 56.272 406.097 56.112 406.161 55.184C406.193 54.672 406.257 51.44 406.257 47.664C406.257 47.472 406.065 47.216 406.033 47.216ZM422.578 44.528C427.218 44.528 429.842 48.08 429.842 51.248C429.842 53.84 428.786 55.44 427.698 56.432C426.546 57.488 424.786 58.384 422.45 58.384C420.306 58.384 418.386 57.648 417.042 56.304C415.666 54.96 415.154 52.912 415.154 51.472C415.154 49.072 416.338 47.312 417.746 46.192C418.962 45.2 421.202 44.528 422.578 44.528ZM422.098 46.096C421.49 46.096 420.786 46.448 420.466 46.864C419.986 47.504 419.41 49.072 419.41 50.896C419.41 53.648 420.37 55.504 421.074 56.08C421.33 56.304 422.098 56.848 422.898 56.848C423.378 56.848 424.146 56.496 424.626 55.856C424.978 55.376 425.426 54.064 425.426 51.76C425.426 48.688 424.146 46.096 422.098 46.096ZM432.438 46.608C432.438 46.192 432.854 45.776 433.078 45.68C433.91 45.392 435.446 44.912 436.118 44.56C436.534 44.368 436.822 44.24 437.11 44.24C437.206 44.24 437.526 44.688 437.526 44.816C437.558 45.264 437.558 45.904 437.59 46.384C437.59 46.48 437.782 46.672 437.878 46.48C438.806 45.456 439.99 44.528 441.238 44.528C442.262 44.528 443.382 45.264 443.382 45.84C443.382 46.512 442.582 47.632 441.91 48.144C441.622 48.4 441.302 48.592 441.11 48.592C440.982 48.592 440.694 48.496 440.374 48.272C440.182 48.08 439.414 47.568 438.998 47.568C438.71 47.568 438.262 47.664 438.07 47.888C437.91 48.048 437.75 48.272 437.75 48.496C437.75 48.816 437.75 53.488 437.782 54.608C437.846 55.952 438.134 56.272 439.382 56.656C439.926 56.816 440.534 57.136 440.534 57.488C440.534 57.904 439.862 58.16 439.478 58.16C438.486 58.16 436.566 58 435.638 58C434.518 58 433.814 58.096 432.918 58.096C432.342 58.096 431.83 57.84 431.83 57.488C431.83 57.136 432.118 56.88 432.694 56.656C433.782 56.24 433.878 56.016 433.91 54.416C433.974 52.72 433.974 50.256 433.974 48.56C433.974 48.336 433.846 48.08 433.206 47.536C432.79 47.184 432.438 46.832 432.438 46.608ZM462.095 38.096C462.607 38.096 462.767 39.056 463.599 41.2C465.295 45.84 467.951 52.272 468.751 54.224C469.519 55.984 469.903 56.048 471.311 56.592C472.047 56.88 472.303 57.328 472.303 57.68C472.303 58 471.823 58.16 471.279 58.16C470.062 58.16 467.983 58 466.415 58C465.007 58 464.431 58.128 463.343 58.128C462.543 58.128 462.255 57.808 462.255 57.584C462.255 57.232 462.543 56.816 463.151 56.592C464.399 56.144 464.431 55.6 464.207 54.832C463.951 54 463.663 53.2 463.247 52.24C463.215 52.112 462.895 51.792 462.415 51.76C461.839 51.696 457.903 51.664 457.071 51.792C456.911 51.824 456.623 52.112 456.559 52.272C456.239 53.104 455.791 54.736 455.791 55.248C455.791 55.76 456.111 56.24 457.295 56.624C457.711 56.784 458.127 56.976 458.127 57.36C458.159 57.552 457.743 58.096 456.911 58.096C456.559 58.096 455.631 58 454.639 58C453.487 58 452.399 58.16 451.118 58.16C450.447 58.16 449.966 57.904 449.966 57.52C449.966 57.2 450.223 56.88 450.927 56.656C452.239 56.176 452.847 55.888 453.647 54.224C454.511 52.4 457.135 45.744 458.927 40.976C458.991 40.848 459.055 40.56 459.087 40.24C459.087 40.144 459.247 39.92 459.343 39.824C459.727 39.568 460.975 38.736 461.327 38.448C461.519 38.256 461.967 38.096 462.095 38.096ZM462.031 49.776C462.159 49.776 462.319 49.52 462.287 49.392C461.807 47.824 460.367 44.112 460.079 43.6C459.951 43.408 459.759 43.472 459.663 43.6C459.087 44.88 457.871 48.368 457.583 49.392C457.551 49.552 457.647 49.776 457.871 49.776C458.351 49.808 461.519 49.808 462.031 49.776ZM475.315 47.216L474.067 46.96C473.875 46.928 473.491 46.672 473.491 46.416C473.491 45.936 473.971 45.648 475.219 44.912C475.283 44.88 475.539 44.528 475.539 44.464C475.571 43.344 475.891 41.84 476.691 40.528C477.363 39.376 478.227 38.608 479.059 38C480.147 37.168 481.811 36.528 482.963 36.528C484.339 36.528 485.363 36.88 485.939 37.488C486.003 37.584 486.291 38 486.291 38.448C486.291 38.576 486.163 38.992 486.067 39.184C485.715 39.792 484.979 40.336 484.499 40.336C484.371 40.336 483.795 40.112 483.539 39.888C483.059 39.472 482.163 38.448 481.267 38.448C480.115 38.448 479.795 39.824 479.667 40.432C479.507 41.232 479.475 42.896 479.475 44.208C479.475 44.72 479.635 44.912 479.795 44.912C480.819 44.912 482.835 44.848 483.059 44.848C483.347 44.848 483.507 45.52 483.507 46.512C483.507 46.704 483.091 47.12 482.931 47.12C482.835 47.12 479.987 47.056 479.667 47.056C479.507 47.056 479.379 47.216 479.379 48.08C479.379 50.8 479.443 52.176 479.507 54.704C479.539 56.208 479.987 56.304 481.395 56.592C481.939 56.688 482.355 57.008 482.355 57.424C482.355 57.776 481.939 58.096 481.235 58.096C480.819 58.096 479.123 58 477.331 58C476.467 58 475.091 58.096 474.451 58.096C473.618 58.096 473.299 57.712 473.299 57.296C473.299 57.104 473.618 56.912 474.195 56.656C475.059 56.272 475.379 56.112 475.443 55.184C475.475 54.672 475.539 51.44 475.539 47.664C475.539 47.472 475.347 47.216 475.315 47.216ZM484.875 46.608C484.875 46.192 485.291 45.776 485.515 45.68C486.347 45.392 487.883 44.912 488.555 44.56C488.971 44.368 489.259 44.24 489.547 44.24C489.643 44.24 489.963 44.688 489.963 44.816C489.995 45.264 489.995 45.904 490.027 46.384C490.027 46.48 490.219 46.672 490.315 46.48C491.243 45.456 492.427 44.528 493.675 44.528C494.699 44.528 495.819 45.264 495.819 45.84C495.819 46.512 495.019 47.632 494.347 48.144C494.059 48.4 493.739 48.592 493.547 48.592C493.419 48.592 493.131 48.496 492.811 48.272C492.619 48.08 491.851 47.568 491.435 47.568C491.147 47.568 490.699 47.664 490.507 47.888C490.347 48.048 490.187 48.272 490.187 48.496C490.187 48.816 490.187 53.488 490.219 54.608C490.283 55.952 490.571 56.272 491.819 56.656C492.363 56.816 492.971 57.136 492.971 57.488C492.971 57.904 492.299 58.16 491.915 58.16C490.923 58.16 489.003 58 488.075 58C486.955 58 486.251 58.096 485.355 58.096C484.779 58.096 484.267 57.84 484.267 57.488C484.267 57.136 484.555 56.88 485.131 56.656C486.219 56.24 486.315 56.016 486.347 54.416C486.411 52.72 486.411 50.256 486.411 48.56C486.411 48.336 486.283 48.08 485.643 47.536C485.227 47.184 484.875 46.832 484.875 46.608ZM497.283 46.32C497.283 46.096 497.635 45.776 497.763 45.744C499.363 45.168 501.667 44.432 502.211 44.432C502.371 44.432 502.595 44.976 502.595 45.392C502.595 46.576 502.595 48.624 502.595 50.96C502.627 55.152 502.691 55.28 502.723 55.568C502.787 56.08 503.011 56.4 503.907 56.72C504.355 56.848 504.803 57.168 504.803 57.552C504.803 57.84 504.387 58.096 503.715 58.096C503.043 58.096 501.411 58 500.707 58C499.075 58 497.859 58.128 497.411 58.128C496.867 58.128 496.291 57.936 496.291 57.552C496.291 57.168 496.803 56.88 497.091 56.784C498.499 56.336 498.531 56.144 498.659 54.928C498.723 54.256 498.819 51.856 498.819 50.032C498.819 49.392 498.787 48.336 498.755 48.144C498.755 48.016 498.627 47.664 497.763 47.056C497.571 46.896 497.283 46.512 497.283 46.32ZM500.675 37.904C501.251 37.904 501.667 38.128 501.955 38.416C502.499 38.992 502.659 39.792 502.659 40.08C502.659 41.808 501.187 42.384 500.419 42.384C499.779 42.384 499.043 42.032 498.627 41.392C498.403 41.072 498.275 40.72 498.275 40.24C498.275 38.896 499.203 37.904 500.675 37.904ZM514.179 44.528C516.387 44.528 517.571 45.2 517.827 45.488C518.051 45.712 518.243 46.288 518.243 46.512C518.243 47.632 517.571 48.496 516.899 48.496C516.675 48.496 516.163 48.176 515.683 47.696C514.819 46.864 513.827 46.224 512.771 46.224C511.971 46.224 511.363 46.704 511.043 47.024C510.563 47.536 510.115 48.56 510.115 50.32C510.115 53.584 512.291 55.472 514.595 55.472C515.715 55.472 516.867 55.024 517.795 54.256C517.923 54.16 518.371 54.288 518.371 54.704C518.371 55.152 518.051 55.728 517.731 56.208C516.707 57.584 514.819 58.384 512.867 58.384C511.171 58.384 509.699 57.872 508.419 56.752C507.587 56.048 506.435 54.192 506.435 51.952C506.435 48.816 508.099 46.896 509.827 45.84C511.459 44.848 513.091 44.528 514.179 44.528ZM527.243 44.528C528.555 44.528 529.739 45.008 530.795 46.096C531.403 46.704 531.819 48.272 531.819 48.784C531.819 50 531.691 50.864 531.691 54.448C531.691 55.408 532.235 55.824 532.779 55.824C533.003 55.824 533.515 55.728 533.803 55.6C533.899 55.568 534.059 55.856 534.059 56.048C534.059 56.496 533.739 57.2 533.643 57.296C532.875 58.128 532.075 58.448 530.955 58.448C529.963 58.448 528.779 58.064 528.203 56.496C528.203 56.464 527.915 56.336 527.851 56.4C527.275 56.816 526.539 57.328 525.803 57.808C525.227 58.128 524.491 58.32 524.011 58.32C522.955 58.32 520.683 57.264 520.683 54.416C520.683 53.68 521.003 53.072 521.227 52.784C521.547 52.304 522.379 51.984 522.507 51.952C525.003 51.344 526.859 50.896 527.819 50.416C528.011 50.32 528.235 49.936 528.235 49.872C528.235 49.424 528.235 48.912 528.235 48.528C528.235 48.304 528.203 48.08 528.139 47.856C527.755 46.864 526.731 46.288 525.835 46.288C525.291 46.288 524.811 46.608 524.715 46.8C524.619 47.024 524.491 47.792 524.395 48.624C524.363 48.88 524.139 49.168 524.011 49.296C523.851 49.456 523.371 49.648 523.179 49.648C522.539 49.648 521.515 49.552 521.131 49.36C521.003 49.264 520.747 48.848 520.747 48.688C520.747 47.952 522.059 46.832 523.403 45.936C524.587 45.168 526.155 44.528 527.243 44.528ZM525.995 55.728C526.507 55.728 527.243 55.504 527.787 54.992C527.883 54.832 528.011 54.544 528.011 54.064L528.107 52.144C528.107 52.016 527.947 51.92 527.851 51.92C527.083 52.08 525.867 52.4 525.227 52.624C524.459 52.88 524.235 53.392 524.235 54.032C524.235 55.024 525.131 55.728 525.995 55.728Z" fill="#0894e1"/>
<defs>
  <clipPath id="clip0_59_1460">
    <rect width="69" height="58.1928" fill="white" transform="translate(0 5)"/>
  </clipPath>
</defs>
</svg>